<mxfile host="app.diagrams.net" modified="2022-04-14T18:51:28.839Z" agent="5.0 (Windows NT 10.0; Win64; x64) AppleWebKit/537.36 (KHTML, like Gecko) Chrome/100.0.4896.92 Safari/537.36" etag="6Kstrc7kaDBfxVWHZpr4" version="17.4.3" type="github">
  <diagram name="Page-1" id="5f0bae14-7c28-e335-631c-24af17079c00">
    <mxGraphModel dx="2062" dy="1071" grid="1" gridSize="10" guides="1" tooltips="1" connect="1" arrows="1" fold="1" page="1" pageScale="1" pageWidth="1100" pageHeight="850" background="none" math="0" shadow="0">
      <root>
        <mxCell id="0" />
        <mxCell id="1" parent="0" />
        <mxCell id="sY-5WAGEeDTKXC991bIr-3" value="" style="shape=image;verticalLabelPosition=bottom;labelBackgroundColor=default;verticalAlign=top;aspect=fixed;imageAspect=0;image=https://miro.medium.com/max/1400/1*lAMsvtB6afHwTQYCNM1xvw.png;" vertex="1" parent="1">
          <mxGeometry x="50" y="90" width="973.18" height="670" as="geometry" />
        </mxCell>
        <mxCell id="sY-5WAGEeDTKXC991bIr-5" value="" style="shape=image;verticalLabelPosition=bottom;labelBackgroundColor=default;verticalAlign=top;aspect=fixed;imageAspect=0;image=data:image/png,iVBORw0KGgoAAAANSUhEUgAAAv4AAAE5CAYAAADoYCQoAAAgAElEQVR4nOzdV5QcV3rg+f+NSJ9Z3qPgPUAABGhACxCkutl+uim1TGukPTPSzOzqzJxdve2rXndfdh9m98yZkWbUPaNedat9t5rdtE0SNCAIkiC8d4XyPittmLsPmZEZmZVlAALIMt/vHBJRkWFuRGVFfHHju/eqF1/UGiGEEEIIIcSKZtS7AEIIIYQQQoj7TwJ/IYQQQgghVgEJ/IUQQgghhFgFJPAXQgghhBBiFZDAXwghhBBCiFVAAn8hhBBCCCFWAQn8hRBCCCGEWAUk8BdCCCGEEGIVkMBfCCGEEEKIVUACfyGEEEIIIVYBCfyFEEIIIYRYBSTwF0IIIYQQYhWQwF8IIYQQQohVQAJ/IYQQQgghVgEJ/IUQQgghhFgFJPAXQgghhBBiFZDAXwghhBBCiFVAAn8hhBBCCCFWAQn8hRBCCCGEWAUk8BdCCCGEEGIVkMBfCCGEEEKIVUACfyGEEEIIIVYBCfyFEEIIIYRYBSTwF0IIIYQQYhWQwF8IIYQQQohVQAJ/IYQQQgghVgEJ/IUQQgghhFgFJPAXQgghhBBiFZDAXwghhBBCiFUgUO8CCCGWO13vAqxAqt4FEEIIsQJJ4C+EuGtaOzhOCsdJ4bpOvYuz7CmlUCpIIJDAMKIoJQ8AQggh7h0J/IUQd0RrF9ueJpO5SSp1hnx+iFxuCNe16120ZU8phWnGCQabiMV2EYttJhJZh2lG6l00IYQQK4AE/kKIRXPdLNPTp5mYeJ3JyffIZT8hGgvS3dFCY0OscmGlcFUcw52pmK2NKEpboCsfFByzBdOZuKtyaSOG0jnQlW8dam1TqwCoIMrNVB6bkcDQKdCVqUuu2YzhTFZtIwjKQLm5qmUbMZzpuzoGgGQqRyo5Rf/tGUyzkWjsYdravk5r6/NEImvuertCCCEESOAvhFgkx0kxNvY7hob+ASt/lA3rO3ns4Iv0bO1kE73ENnTe830qpdBVgXiteUtZzfIqhYJZ87PZLNM3hpkYH+Xjm+c589lpBgbOkE5fpKvrD4nHd2AYwQdXeCGEECuKevHFZXQHFULUheOkGRt7jaHB/0ZL802efmofzz3+DJv27SKRSBAM3p9g1DRNHKeyFt8wDFzXvS/7ux8CgQC2PTsNar7jcF2Xgf4BLp+/wG9++TLHTl0nHD5Mb+9fkUg8hFLm/S62EEKIFUhq/IUQ89LaJZk8zcDAd2lrvcWf/Mk3efbQIXp6ejCM+98jcCAw+zL1IPZ7L9U6Bpj/ONZvWE93TzebNmyk9Xs/4LVjxxge7iEc7iEU6rhfRRVCCLGCLa+7pxDigbOscUZH/5lI+DRf/sqzHHn++QcW9K9mSinC4TBrt2zkpT/7A/bu7SGTPUoyeVIaUgshhLgrcucWQswrlbrM+Pg/s76zmaf3HqSjo0OC/gcoFAqxbecOXnj+ORLRYUZGfoVb1ahYCCGEWAy5ewsh5uS6WbLZ6+SyV9j20E56tm+UoL8OTNPk4Ycfp7Ozk3T6Irlcf72LJIQQYhmSO7gQYk6Okyab7aO5pYWd67cSj8frXaRVK5YI0dPbhlIpstl+tF4+DZyFEEIsDRL4CyHm5LoWjpOioaGRjvW99633HrGwQCBAU2MCw3BxnIwE/kIIIe6YBP5CiAUZhokKSheS9aSUIhYJYUqqlRBCiLskdxAhhBBCCCFWAQn8hRAL0na23kUQQgghxOckgb8QYkHKlNz+ejNNE1dFcLWqd1GEEEIsUxL4CyEWpiS/v94cx8HQWQyl610UIYQQy5QE/kKIBblWqt5FEEIIIcTnJIG/EGJBRlD67xdCCCGWOwn8hRBCCCGEWAUk8BdCCCGEEGIVkMBfCCGEEEKIVUACfyGEWAYMpdAqiMapd1GEEEIsUxL4CyEWJL361J8G0C4g/fgLIYS4O4F6F0AIsfQZwVi9i1BTJpNhdGSUbDZLz5oeEolE6TPLshgZGWF0ZATDNAmYJqYZIBwO07u2F9MsjE2gtWZsdIz+/n4ikQhaa/L5PJFIBICm5iY6Ozvrcnx+WmsUDkrqa4QQQtwlCfyFEAvTbr1LMIvWmlMnP+OH3/sfzDhpvvGtb/LVL38DpVTp8zd++BteP/Emjc1xHBJEwnlam3rZu+cxnnx2H+3t7UxPT/Pu0Xd4592PMMwUIwNjGGaEQKSJDS0Jjnz9xSUR+AshhBCfl1QdCSEWpJ18vYswi2VZnPrkUy5ev8L1G4OcOHuMZDJZsczpoX6GhyfZuHYThw8/wo5tuxkdH+GnP/0ubx59Fcu2iMVibNq8mWeffYRtW3cwPDpJ3srx1MGdHHj2cdavX1+nI5zNcQ20pPoIIYS4S1LjL4RYkApE612ECo7jMDMzw0fHP2LLtq1oFeDaZ33c7uujcffu0nJRnaK9tYUjTz/HnicfxbZtThw7zn//u7/n5LGPOfzUC3R1dbFn71727N3LhfPnOfrWUdauW8tXvvoNOjo6MIylVD+i610AIYQQy9hSuqMJIcSiaK25cOEC48k0j+05wP4DDzEzPcmZT4exbbu0XFpnMJRBKBTCNE2i0Shbd2ync/1abvTNkM1mUUphGAaGYRAIBMnnXTAiBAKBJRX0m6ZJJBxESfAvhBDiLi2du5oQQizS9PQ0b771GcFAkO2bt7Fr7TYaEh1cOfsWA/0DpeUaVQJXa1zHxXEcbNsmk0yRHU+yri1BoNjA1y8eDxMKzp5fb47jYFlLL+VKCCHE8iGpPkKIZUVrzdTUFJfOHaOjq5Ge7RswTJPu3m6Onz3DN2aSaF2oFZ90p5mamubsxXNMuRnIO7x3/EPGMxm+9oWv0FGj0a7WYDtLrzGzEEII8XlJ4C+EWFby+TxXLl9mcGiUp578PWLxONFolJ5tPbz73jFuXL/Gpk2bME0T205wa6ifH/zs57Q0JwioMInGMC88e5iDBx8nFArN2r5CYyq7xp6FEEKI5U0CfyHEsjIzM8PZM6dIJme4dPETfvyjGQzD4NbFy2SzOU589DGPPvY4zc3NmGaW1tYuDj55iId2byIYDNHT082WzVuIJeKlrj8rKIUygg/+wIQQQoj7TAJ/IcSyobVmenqaWzduobTm1u0h+gZHALCzM8RiYS6ducTojX6amppoNRtY29HKN54/xK7H9y++se6S7TFzyRZMCCHEMiCBvxBiQdq16l0EAGzb5ualq0yMTvKn336JAw/tI9zZBMD0OHz06W85fuwkVwZusG7nFkbyzoLbdF2XZDJJeirJwEA/mXSa5OQ4gzf7yE2laOpsI56I3+9DW5BpGLgqhKsl+BdCCHF3JPAXQixsiYzc67oufSPDmNEgL3ztRbZu3Vb6zHEcWjpMLl24zK2bfeTzeZobFamx2Xn8fplMhmPH3ueDtz5gcKSfgaExkqkc//Vv/57WhgRf+aOXeOSRR+73oS3IcV0MncNQ0p2nEEKIuyOBvxBiQcoM17sIQKHGv7etk+efPkxnZyemrztOwzDYunULzx96ntbGFgKBAM8++xxjawZo7pnde49Ha03CjNC+sZFwpIvdG7eRCWZRpkHE2CDJNUIIIVYMCfyFEMtGPB7n0BePYNv2rB55lFLEYnG+9UffBiAUCvHsoUNwiHkH40okEjxx5BCPPvtUzc/D4aXx0FMgjyFCCCHungT+QohlxTTNipr+av5AfbFB+0LbXApMwyzm+MsgXkIIIe6OjNwrhBDLgOM6xRz/+dssCCGEEHORwF8IIYQQQohVQAJ/IYQQQgghVgEJ/IUQYhlQKNRiByATQgghapC7iBBiQdrJ1bsIq54yFIaSXn2EEELcPQn8hRALU0u7x5vVwHVdHGfhkYiFEEKIuUjgL4RYkDKk518hhBBiuZPAXwixIDc/U+8iCCGEEOJzksBfCLEgZUrf8UIIIcRyJ4G/EGJBrp0hP5asdzFWNce2mZ7J4ri63kURQgixTEngL4SYk2GECQQaydrgpKVnn3pytSY5k0TrEIFAI4a0uxBCCHGHJPAXQszJMIKEQj2Mj89w/NpJkkmp9a8HrTXTIxNM3BoBEsRi6+pdJCGEEMuQBP5CiDkZRox4fCuOE+Xy5Rv0D/WhtaSaPGiWZXH2wjmGp5LEYjswzcZ6F0kIIcQyJIG/EGJOSimi0fV0d3+HGzeTvPfee0xMTNS7WKuKbdvc7uvj/ePvM5VupaXlBQKBRL2LJYQQYhmSwF8IMa9gsJ3Ozm+SzfTw1hvvcPLkJ2Sz2XoXa9UY6B/gFz//Oe+/f4lw+Hmamw+iZEA1IYQQd8HcsuVv/qbehRBCLF1KKYLBdhzH4datzxi7dZ6GlgSdnV0EAgGUUvUu4oqUz+e5efMmP//ZT/nZL1/FtrezZs2/JRrdIOdcCCHEXZFuIYQQCzLNCO3tX0brLOdufJ+//973uHzpGk89eZDu3jVEIhGCwWC9i7nsOY6Dlc+TzmQ4feoUHx77kKPvnUG7B+nt/XMSiZ0oJS9qhRBC3B314ovSUk8IsTCtXfL5EUZHX2Ns9J/Q+hJbN7ayYcsG1q7rpj3egopI8H+3tOOSSifpH55moP8mly9dZ2wsRCx2mK7uP6GxcR+GEa53MYUQQixjEvgLIRZNa43jzJBOX2Fs7BWmpo6CHiUYcgioAJiKcNgmEHBJpUIEAi5KgWUZxOJ50qkQoZCDYxs4riIcyZJNK6Ixk1w2gGFozIBLNpvHMKJEoxaZTJBw2CafD+C6M0QiEXK5ANGYhQLyeXPWPgCiUYtsJkgsnidvmbj2DHlLYZqNBIMOrmuQz8+QSETIZIJEIja5XAClNMGgQy4XIBazSKcLDzPhsI1lmUSjFrZjoF2FbRtEoha5bBDDcLEsk3g8TzYbJBKxyGaDOI4iEsmSTitiMbO0j0DQJZvJYxgR0BrXzQEh8paLbYeIRLbT0nKElpbDRCJrJa9fCCHE5yaBvxDirjhODssaJZ2+Tjp9Ea3t4n+UBpcq/KzR2sY0o2jtoLWL1g6mGcFxsphmBNfNYhhhHCeHUiZKGShl4jgZlCq0I3DdPKYZQ2sbANe1MIwIWueL62ZKP4PyrZcDFOn0RTKZ6zQ3P0Uw2I7rZlEqDOjiNjVKhXDdLKYZxXVzFT+XjzuNYYTQWmMYweJxVh6Xx39c/vn+41KqfK4AQqEOEoldhMNrMc1ocR+S0y+EEOLzkxx/IcRdMc0wptlLONxFc/MTgFvvIs1Bk8uN0Nf3n3HdJC0tR2hqeoSlG0wbMiqvEEKI+0LuLkKIz6VQc13vUsxNaxfLGmNy8ihW/hKp1Dmamx8v1bQLIYQQq4V0DyGEWNEcJ8XU1IfFVJ8RkslPsKxJQLIchRBCrC4S+AshVrRcbojJyTex7Qkc1yaTOUM224e0bhJCCLHaSOAvhFixtHaYnv6Y6elPcJzCaMO57E2SyVPFRr9CCCHE6iGBvxBixfJq+y2rvzQvnRkmlTqFZY3VsWRCCCHEgyeBvxBixZqa+oipqQ+wrbRvbp50+jTZbD+S5y+EEGI1kcBfCLEiWdYUU1MfMD19CleXuxp1HIvp6XNkMpfRkugvhBBiFZH+7IQQK1I2e5OZmTMEAo2FwbF0Ho1GqTCGESCb7cNx0gQCiXoXVQghhHggJPAXQqxQBs3Nz9DY+AiWNcpM8hiWdZuGxueJRLYQjW5FKXnpKYQQYvWQwF8IsSLFYptYs+Z/QimDXG6QmzezuKkcHR3forn5aUwzhmFE6l1MIYQQ4oGRwF8IsSKZZgzTjAIKcDDNKEoFCQRaCIe7UMqsdxGFEEKIB0recwshVjBV9XOsLqUQQgghlgIJ/IUQq0h64UWEEEKIFUoCfyGEEEIIIVYBCfyFEKtIvN4FEEIIIepGAn8hxCqSqncBhBBCiLqRwF8IIYQQQohVQAJ/IYQQQgghVgEJ/IUQQgghhFgFJPAXQqwi1f36CyGEEKuHBP5CiFUkXO8CCCGEEHUjgb8QYhXJ1rsAQgghRN1I4C+EWEVi9S6AEEIIUTcS+AshVpF0vQsghBBC1I0E/kKIVcREKbnsCSGEWJ3kDiiEWEVM5LInhBBitZI7oBBiFcmjtV3vQgghhBB1IYG/EGIVSWCa0XoXQgghhKgLCfyFEKvIDI6TqXchhBBCiLqQwF8IsYqE6l0AIYQQom4k8BdCrCJuvQsghBBC1I0E/kKIVUQa9gohhFi9JPAXQqwiMnKvEEKI1UsCfyHEKiIj9wohhFi9JPAXQqwikXoXQAghhKgbCfyFEKtIrt4FEEIIIepGAn8hxCqi610AIYQQom4k8BdCrCLBehdACCGEqBsJ/IUQQgghhFgFJPAXQqwiVr0LIIQQQtSNBP5CiFUkXu8CCCGEEHUTqHcBxN3R2sZ1LbSWGsx7yTAiGEYQUPUuygOnteP7Tq2kRrAa257BdfNACseZwbanUcqsd8HuMYVhhFfp91ejtYvr5uWaeI8U/j4K3ymlDFbbd2rlXg/rxUApE8MIrcBr7/Iigf8y4zhpcrkhstk+Mplr2PY0Wtv1LtaKoJRJJLKWSGQ9sdhWgsFGVsPNzrZT5HJDZDJXsKxRLGsS111J3V5qHCdFJnMR1xlnbOy3ZDJXWGkvPA0jTDi8hmh0PZHIeoLBlmLAtrLZdpJ8fphM5ha5XB+WNYHWTr2LtewZRoBAoIlweF3xutiLaUbrXaz7znGy5PPDZLM3yWZvrcDrYX0Uvk8tBINtRKObCIe7CAQaV8U1aqlRL76o5VF2mcjlhhgff4uJiTdIpz7GcScJBQ0a4/L89nlZLkwnc6CDhMKbaWv7Jm1tXyAW21Tvot03rmuRyw0wMfEeIyM/I587jWG6hCMmSq20y4LGdbMoAqBMDBVGr7B8/1zWJpuxCIW30t7+Im1tXyOR2IpSK/P6oLVDPj/KxMRRxsZ+RTp9Eu2mSDSEQYXrXbzlTVvk81lyWRfbMWhqeoLm5iO0tj5PJNJbfKu0smitsawxJibeY2LiDaamjoKeIN4QIxpYadfDB8sFsnmXXFaTSs/Q2voMzc2/R1PTEzQ0PCRvAB4wCfyXAa1dstnbDA5+n9HRn9AQH2H7tg2s6+imt6GTYMAkFmuodzGXtWwuw+DECBf7r9E3NMH4hEso9Bxr1vxrEomHMM2VNeKr1g7T058xOPgPTE7+lpbWHO1tPfSu3U5XazcNUf/36W7feug51vXmz/X5vVS9D//P3qXvbsqw0LEtZtnFbnPh9bK5NKMzk4yODtDXd53BgXFisSdZs+YvaW4+iGnG7mK7S5fjpJmZucDIyE+ZnPwFjY1Z1qzdwtp12wm3dhFrbME0VuYDz/3mahfXscnMTDN+6yKDgzcYH7nN+HiepqZ/QWfnt2lufhzDCNW7qPeM1i6p1CVGRn7J6Og/EosMs2fbOh7Z1kFDPEJXS5yKv03v8uWfXuy8+/35EtynZTuMJzOMT6U425fk2u0pBgfzRKIPs2bNv6W5+YkVd41ayiTwX+K01mSzNxkY+B5TUz9j67owX3/qMPu37Ka7rYOAGSgtV6jVdAEwDLP4s8Y0TbTWpf9M08RxnFn/KqVK/zmOg2EoQOG6DqYZQGu34mfXdTCM8jZc1yl8rl0CZgDHdVAUt+eb9n4OGCa262AaZnGbJq5bPA6tCRT3UcgzNbAdG0MVymQohe06xWXc0jZNo3Cs3vLezxqNaZigC9sGXSy7jWEU8leVUuTyOT67ep43P3mXtz45ie0eYO3a/5WmpidWTPDvOBmmpz/m9u3/iGmeZeeOXTx54DBbN+2hqaEFVRV8KkOhXY0yFGjQaAxl4OrCeYfC9680DwUKtKspTBZ/1hqlyttazDaVusN9eusUP0dTsQ/vJuWVwzu++fYBzN6n6xaOoaoMWmsMs/i57zws6tzNsc1ax1Vzn45Lzspy5fpZjn36Dp9+dpx0egu9vf+O1tbDKyZNw3XzTE19RH//fyGX+x3b9jzG489+hY0PHaS1sxdlSOrAvaOZnhjh1uXTfPbur/js+AlsexNr1/4HWlqeWhHBmtaamZmz9Pf/N/L519izLcGff2kvuzd3s7GnnUgoWLpmKKVwXZeAaeI4hb9XBTiuJmAapftX4f7jYhoKTeEaYJoGTvG6oAyF4/9ca0yj+Lkqb9M0DbTr3b8MHMct3pf9+yzclw1Dzb/Pqnukf5v+45hvn27VNhe7z/LJhsmZNGeu9POrd07x2odXGBrvYN26/53W1iMEgw2shvTaepPAf4mz7Rn6+/87E+N/x/6d7Xzn+S/z0MbthINBTFNej90Plm0zMDbMj97+Lb8++jaB8FdZt+6vSSS2s9wvSq6bJ5k8w82b/wfhyFmeePw5nnviK6zt3lC6IXgBplieHNdhcmqMdz56jd++9ktcZz9r1/01jY0P17to98TMzHn6+/8fbOdtdh94jOe++W9Yu3k3gcDKSz9ZCgoVRi5DfVf56PUf8c4rv0TxJOvW/XsaGvbWu3ifSyFdbJzr1/9PcrmX+cIz6/hXX9rPU/s2E5D7633juC63hyZ4+f1z/L8/ep+J6T2sW/cfaG5+BkPe1N135pYtf/M39S6EmFs6fYm+vv9EV+sk//KLX+Ox7XuJhsPFWmpxP5iGQUMszpq2ToadSa5cPU0wuJFYbMeyvihprcnnhxkc/D7J5K949pkXeOHpr9Pbtb705kiC/uVPoYiEY7S3djI+1c+NW+9jGL00NDy87HNpbXuagYHvk8u9zr6Dj3HkpX9H78adVUG/rniDKe6M6zpoXbgW2LaFaZooZRCNN9K1fivZ1CQ3Lh3DNDtJJPYs6zYkrptlePgXjAz/Jw4f7OWvvvUEj+xcTzg4+yFSKkXuHUMpGuJR1nc1Yxoux86exrbDNDTsXxFvkZY6iR6XMNfNMTj4TxjqIoce2c++LTsJh1ZOXuVSZhgGG3vW8sePf4kNaw2S06+QTl+td7E+F60LKRLj4//Mxo1rePHQSxVBv+u6la9lxbLh/70pVUiNa2vu5JknvkJHRzOTk2+SSl2sYwk/P61tksmzjI7+hK61jTz3zb9kva+m33HsUmqg6ftOV35WmGfbVmnasnLF7ZdTJbUuLOOlell2vmLav11vvuu6pX0ApX0AFfuw7XzxgLxyedtycBzbt61aZS8vU+im1ldGq9zzjH/fhUDeOy5dsQ+vLIWGrYVpwzBLFUv+B6pAIEhzWw9PvPBNeteGmZz6DanU8r0mau0U8/p/yLoug7/4yn4O7t5INFz7Hlsd9PvTZ73fgf/f6nnVn5fnVW2vxnb826suw3z7mKtc1durtZ072d5ijrOaYSi62pr4wy88wvMHWslm3iWZPCm9FD4AEvgvWRrbTpFMnmBtV4yndx6gKS4NeB+0jpY2Nm/YTCZziWz21rwXsqXOdbPMzHxGKDTBFw//AW1N7YV2D0WGYVT8bBcDhOpjdnX5AUFrXRF0esEKFIJRf1BUa371+rZjVyxXa7uudkvrO66DWwxqHNcpLedfpjKgK+SuVh+X1rq0nUJwVN635Q/gfNMVxzfP/mqdK+1rj1O9rYppp3If/nX856oUJPrOh1KK7vYeNm/cQSZzgnT6CuVWd8uP61qMj79BIDDB7v3P0tLeU/qs0HYpgGGYpSDXzzQDKGWU2v8EAoHSdDAYLtXmGoaB1i5KGRVBbzDgBYOaYCBUaCNS3Gdh2sUwjIr9BwLB0u/Ov49AIFRYRuFbv9D2ymubVdiWMeu4DMMstrcqNFapKGNxH1rr0r4Lx2iWjl0pVVq/cB5CpfnBYKjiAcH/9+F9Dw3DoLljLRt2Pkoue5JU6gLL9Tvlujmmp4+TTp/hW8/v5bGHNmKalSHRXAE3lHP+/W+W/P9Wz6v+vDyvans1tjPX26uF9jFXuaq3V2s7d7K9xRwn1H4Q6Ghp4ImHNhI0+0mnL9b8+xX3lgT+S5TrWmQyN8jn++hua6GrtQNT0nseuJaGRja19GAYU+Tzt9E6X+8i3RWtNbncMNnsFRKNCXZufZhweP7Gnt5DgFt1ITaUUb6gq8LPnuqLf60bgH99pVTF+v4Hj1o3ksIuVamphaGMUmPkiu1Suxxz1qCp8jpeAOjx3ohUT8+1P39557zBouY8J4YyStGAYRhzbst/roLFANBQRul8KqVoiDfRu2YLoaBNKnUBx8mwXFnWOOn0eRKNIdZu2UM0Xhhnw8tBh8qHLu/36BYfpHTFwxkVAYa/pt7/0Od/0Kr8ztTe56yHzKqHy5oPdHPsw39c1cv5y6tdt2odPWs57c5dM1u5Xde3X1363P89jCYaae/eQMB0yWQuYdtpliPbniGTuUIokOPgQxtojM9OMZHUnnur1vkMmCa7tvTS0BTCyg9g28k6lGx1kUhyidLaIZu9ieum6ezuICQN1+pCoVjX3U1Tk0E2e3MZB04uudwArttPd/c6YpH47NoYKoMG73N/gOl9XgouqR3Y+pepnl+937tZ3x+kz1X7VGu7hmGUgmx/cD/fcSx2eq59+wPxxZwTr9Zv1vx5yjjXPNMw6WzpJp6IYlkjWNb0sn1rlc+PkM+P0N27kab2nmItuFdTXzntT5Xxfh9eCkvpO2yUezvzasG9aaBUw+1NF7bj1ZwbNfcPVHQj6n/g9ILnyjcFlfP9+6guY/V0abumWbEt7xj9tfterzTV5QIqen0rvB1QpbcE/vPnf5vQ2rWOWCJBNnsD103d+1/2faex7Uny+UE2rl9Dc0Osorbf/wDl/x3W3FKN2fOlzCw0r9bnd7O9O13n85TvbuZ5DEPRGAvTGg+Qyw9i29Pz7lN8fhL4L2Fa20TCOdojrURCMiBNPWitCaoA8WC4OHz78n0N6bpZAkFFS0snkUh81uf+dJdaqtNyRP35U4xqMUyTxoZmmppacN0sWudYrqkZtp3EdW1CoSiGLzgvpXcVa/a9hzovaFfKqMiTn6sW3vu5VqBXmfZi1dxnqaa8GFO7rl3alj+X3nGswl3QZEUAACAASURBVHw99z4WKldhWle0MSi1HQBfOwDvzUa5jP62Do5jVeyjet1ab8tAEYk3EGuIF79Ty/P7pLWN1jatnS30tDdXfFYrtWbu2v/5g+3Z+60dGJcC8LtYf65tfZ5tVE8v9FAxn/nenCilCAYM2hqiuG4eGXX7/pPAf4nS2ns9rVCm/JrqJRgMEgtHURT6+l8JmqqCfi9X3FC1c/w9SqmKcSO0LxXAm2f7AhHL1/DQP38xOf5a68p8escp5eY7TjmX33GdUmqGPwfecZ052yF48/zTdkUAVXvacZziGBDz59v7y13dZsF/Drwyudott1NwKuf7006q96G1npVi5K3nL4PypTEt16DfL9HQRDha+A5X58IrpUrpKuB7Q+WrwfbXsFfXkFe+EShfdwvrAGgCNXP8vW35av7N+XL8C7Xwc+1jrnJVlnH+HH/v+Gfn+JfHOvHn+HvnxXub4D0U6OL3sPwwpVGGiTKW97gQhXusQ6tpYxp3dm2v9WbUP71QrnyteeU0wMWvU2sf/v/utAzzlusOj/NORCMhjDnKLO49iSiXqMIfHDiOiRGTnnzqpRTcqRAr6c/FX6vnz1v3C1T1jOLnui7oynx478HAu3gHA8HStH++WUwn8NbxP2z4uxX1l8s0zVLwWmgEaZS25Y1nYSijcn5xu9X7qK4Rqy53IFB72jTN4gBylfuqPodzTfuP218+f16+aVbO94/VUb3d6ht8KWBVRinnfyUpdBtpVcwrHHPl79Mf2Ptz4b3z5NWS+9/ezZXvX7mM9qV1VOf4O77pyu2WH0LK027Fw291jr5/H7Pz9WeXq/pBZ3YbgeoyVu7PrZhXfqgJFn82Sg8LhXIs37eelcqVOf7j85urZlsC1Lsz35sC0zTu+AFM3J2VE8msMN6FOBi0Fl5Y3Dcr9TLk7/rPUx20eGrd5EzTvO83v/u1ff/DSvVbjXu1/futeh+Leb2//GmgnM7iTz3xfp9O6Y1RIb3FrPFQq1S5Zttb3iiOHu7V4nvb9ufVe28MvOnqWnRvW/5pb7vetLetcnejTimv3nHs0j4K65dz6wvbrV2uinz/4tsAbzRz5Y0IXcz39/ZRXs6pWL/yvFZ2Uep/e7IyuKUHI8uqfR3w/50t9u9rsakx883zf1Tr93Kn25urfHeaxrPY7c01Xx6YlgYJ/JcopUy0tsjmJLe/nhzXRQUNVMgBVk7uYSQyxyApNa7L/hrl+xEoPwhaa2x7dtlXyo3I/zCzUikVBGK+n2cfsyo1nlb4v8wVja39jbpV7enqAGbhwEiVHijm2+7svPHZy3kBe63l5yqH9wDibWfuhuOVZfHvx//mzpsu/Kt80yuHUmZpQMZoZOG36ot9CJgvNaaW2tuanUo0V9rNYtRKTVpoe4t9GKi1vfnmz7UfI2BgSFrzAyFneYnS2ine6MBNL88uJFeCgGmiLRedN4GVUtMF3s3c3zhUqXKvM7UC/Or0G39f9P7A2p9j7u9dxZvnz3WvlRtfvY6XA+/lvtvFQY+0LrcDmGuf3sNKIbd6du2vv8tSr0y19um1K/Dvs9ZxzJXT7//cCyS96cJASnbFPP8+/cfm37+m0HZB+4KEhRr7Lmeum6XWk6nWunSu/MFrYZ3Kgau8812ukTdK3xcvQCnUght47QX8+fbeOuW3AN5+nIra9uppf1n87RC86ert+tep3oe/XN50dbpX9T60Wy6L62sX4x2/v3a2smFwuVHwSqO1g+sWjjWTrX2PXWyqz92cnzvNnV/s9hbax4Mul99858m1XVxnpaSRLW3Ld6ztFa9wE4qEc5LjX0crJ5+1UMM1SyFTYk7zvqL1XcP9gbWhDIyAv8awwMs7r5XT7/+81jqFncyzzhz7rH5Yme+YNIXGsrX26c+1n+84qnP65/vc356hNFJqVbsGj3dsSpXLp6hsu7A6VKY+en+fhRzt2X3eV7Ql8Z1vrQuDbvlrxwvrVwe5taa9ZWqnOMwVJM1dA+x/iCj/Qfr3Uf7Zm3Yp19tVrlPYdFUtq6+Bd3WqjhfYew8cphkoPSQ4jl1MMXJRyiw+JKyUa+LcNdHe76NWLf+9atC6UvkfiP3TMPutiZy3+pAa/yWqkJtpk7eC6Kzk+dfLyqvnquQfmMd/rHM1+PVbzukluiqg8jewXW78AaFRleax8njf1UJQ7AVnhcDVt1TVd9MfsJbbAVQu7/1cHhm3nJfv5cb7a/G9twPl/HmntC3v7YI3Xd5H9ZsC19eLTmWOv5eKU9iuLgXkWrulfH0vx99rn1B4azD7TYH/O1Ee0Ez79lMdBGvQ5V6Lqvv0X4kWSs25l8deXfOta8yrtdxit/eg5tWy2BSnlfo9Wg6W551uFSik+pg4jglheTFTL6XRknWe5Z7jv1D/yM4cOfD+2ptS15nu7JSSWqOXLsQ/bsDdjhFQvQ1/ufzb9JbzpzRB5Uitn5db3QvMHT46ulU9tMzanu/YSl2A1uiqdOWOt1BIyVDFHP7qNJjCtD+9p1BpYhjl4LU8SFUxra3YNar/IdjxpWQVli32tFQ1PsDs7jhVxT686fIylXnVhuGfNueY9ufZzz6O2dNV+fql9L3K4/Tvx1vWO2+GYYKqPL/lB5aVErCV/56ikdCcge2sIP0OG7/WMuttUI15tZZb7PYe1Dy/+Y58MW0ExIMjgf8SFwnn5A+jjmwvKFQhVlaO/2z+HPi8NTvntVCzWewBhNk3w1rBZq0c/8oVK5eFQiBbMV2Vbz8rj32eO47/AWSuhxH/cfv3XZHj76slLeX4O86cDz/e+l7ZvHVKOf5efr6Xz++bnmsQteqRlb19zUplWqHvqQwjjL9xr/eA6U/j8Sukn3lpktU52eU8/2Aw5LvGFs5dIBDE6xnI25brOrhuubcbr+cdfxsBf5n809463q+v/HehSgOClfdRXt+rkQdvgC5v2qp4SPH4x7go7aO4XDAQmhW4e4ftfwvg9eLjHxDMP17BSuFv3DtXjn9hublTthZadiWb9V2YpzHwfOdlJX2nlgupSl6iCq+VbenVp87MZZrKslj+Ro1+1Q1h/Y0UgVm55RW5577tKUOVgt/SQ4PWpZzjWvn8hjJKsYk/dcULaFVVbu585fLn6/sHH/PKWc3/JsBQRmmfXjm01uVxA3w1vK52MZQxZ46/t05pbAFUxbGV0i0KJ6Y8zxek+c+L/3hqHsMKjD9cd3YXtP5aau/n6nnetFJeCqWDaQZKte2VDXvLef9emk85tafcnWchpcarYS83yvXKUCvPea4UCMMI+NYxKtY3Kr5DwdL86nSk8jLmrO93ZbncUspS4dgL58K/PW/a68e/ssHwynmT5P+dmTV6k9G6/GAkZlt8G5ZFbsdYuWlkS40E/ktU4QIdIBiw0Lnl2YXiXDLZLMlMilg4SiQcJmAu3Zr0lVQX4fUSBWBZeULBUEXQ7A9WFpvvXt0LiZ/rOmSyaWzHJhqJEwoWal81GqVVzeDUcWxm0kkMwyARa6x9M1GQz+eYTk0RCoZIxBqLDREdZtJTpbcVwUCQhnhzRSPZuY7BH4D7Vc/3B+MVgdUCjaQNX470rONh/vO92EZw8/0uVo5y8D8rJ53yoF3VfdNXPBzOemAq//Kq1yt/Pl+OfmHE3cLotoVGxsmpcUzTJBJNoIoNZsuBc+UAY94+vSDcq+n3Rt+t7sHHK0v1A0u5jC5alx+qKx+ACsfjb8hbq+ce//fI/z0vtDNYOcG//3db7U5j0NXUWPV+HKsq/U/cbxL4L3GBgAPB+xMYZ7JZMrksAPFojHDo7nsPsmybXD6HYRhEw5E5LwqZXJZT1y/y8ok3eXbnozy5+xEC0Tn6lF8C3BX1GtI3Wm+Nri1drQtjWc6R3zkzMwVAMBgmEAxiGiaudsnlMqQzKaLhKOFIrDRCbS6f4/1P3mBwbJBHH3qKHZv2FHKkq4JcL5fdNExm0kmOHn+FSDjKkSe/WjOFQ7uayeQ4L7/1Yzb2bObggSOEgmGGRm/z7qe/Y3S0H4CWlk6e3n+E9Ws247hOqYa9+vjKjTCdBR8Sapmr0d9cb1MWw6tpNs3COTaremSybKs0eq/t2BUjD69s5YfXylp+f6595cjQ3rJeoJ3NpMimk6V4PxJvIBpNlGr4/W9yCtvwBstyZ227vJwqfTY5NszpY69gZVIcOPISTa1dvrKV8/Vrldub7++BaK63W/NN+1OK/NuoDub957G6Nyxvfa8x8UrL8feff9v2j4o8f1A71+eL+fvLWzZTM+mK/QUDJs0NcQKB8t+4bTuMTiaJR8M0xKOLOp56mq8nn8WsC4XrunZX0v126ZLAf4lSyizWwqhCusQ9ZjsOF/qu8s8n3yQYjfMHD7/Aus4eQsHgwivXMDg2wvvnP2FjxxoObN9DsEZgCZDN5zh65kN++tvfkk7n2LZ2M/ElHPgv5bcRZeVuBuddyvcQo2rUMPvTmvJWnmAgWLqAJ2cmOXXxY85dO8OTe59l19Z9aK2ZSk5w9MQbXO+7yAtPfpUdm/eW1plJTXH85LucO/cJUSPE9k0P1S6YUhjF5kbpbJqPT31Aor2bQ098ec5WFenMDB+feIvpHRM8/NAThIJhZtJJxieGGR6+zfDwLRINrezevI/1azbP29tN5WBFlUH3nbJtu/RQpQyj9Bupvhl6DaW9EZC9NhK1uvisHmvANMyKQN+s0UBz+VnglUlJhkgkDlQGxf4Raec7B5Ojg5x48yeM3DhPwAxiBoI09mxg+/5n6N20m0CwnFpZyHv3j1JtVH1WOTJwqSy2xdVP32UqnWb3E19EqXLg772VsG2LYDCEl+NfyDc3irXpqmJkXW8ftp0vtVnwpgvL2KV0IcdxUKryIaKwvFV6g+DxtjHfG6LqlKblYbHXQwetC5Uh/gG87vRvaLGBbiqd5ey1AX751klOXp9gbCrL2s4GvvnMNg4d2MrarrbSslf6hvmn1z7m8CNbOXRge8UbmYX2dSdvCO92uTtp9+Bto9AYf/ZnpYdSGcDrgZHAf4nS2sFxMvctxz+ZSfH2qWP87uhxHK1pVRH+5QsvzVEWjWXbpVfKpmkWgsTiz47jcGXgJq9/9iFH9j7N9vUZEtEYWrsVAYrrukRCYZ7acYCR51I8vXsPrQ1Nc+7T22/hlbRRkdtdaCBZXhatsR0Hw1CrqPazkBJmWWNY1iSBQBOBQCOGEcRLJ5iLZeUIBUNz1kp7aTkex3E4f+lTPvzwt7jZGTpau2hv7eLW7St8dOJNrt+4yJa129m8bgeBYu1gNBLn0T1P0NrUypbNuyvy1R3XKQesxdQGx3Wwig0KVW56VmMxV7uFgMvVZHMZMpkc6ELZlKHYvH4HvV3rGR4b4Be//QeGRy6X1vcfn+MbbMnrKtFQxqxgyXEKg2OZhllqWGsaZqkhrqIQYnhtAbwUCMu2Sm89vDud98ahfNwajYvtuJjFoM2fs+/1muQWe2IyjQDKUAumDM06t0uexrImse1pDCNKMNgIeI0ua31/w2SzqcKaujJlBSg+TBmltBsvlcY7R9n0NKeOvUJyeowNW/cRVIqrR3/Dyfdf5tDX/xX7nvoy8URTqeGtUsVGrl42l1IEAsGKlCDvuqiLtePp1BSOncfKpUqldoqDznm1+cFgCK1dbNvyNZx1K7ardWGbtlv4mzAD5Vp3L+jXrot2NY5rgfIa4RqzUojKA3UVGiUHzGCpYWutxpVeF6A1j3OJ9+NvWdNY1gSGESQQaMYwgigVrBGsmijla9xb+1YELC4dcD4z6SyvfnCW/+sH79IUMVi/tpvNa9rI5nNc7x/j8d0bgWKDbK25dHOI7738Ce3NCZ7cu6W0nYBploJnL5h2fB0oBEyz1HbF4zguhUuRwnW9ThgUgYBZ8RfmtWnIW97gdgpDVaaMzfW2dKHzsdAbFADXcUuN58X9JYH/ElW46IYIBu5Pfn86m+bW0CCdXS3kcjYX+24xMD7Mxu61GL4/UldrUuk0F/quksllcByXnrbOwnKGwa2RAYbGhrk5fJuxsUmGR/u4cOsqqngT29SzjtbGZlytGZua4MbQbXJWnmd372Vj97qaZfP2eWXwJmOT48QjUdZ1rqGzpZ1gIICrNelMhhsjt+lqaidvWwyOD5HJZmlpbGFzzzrCodCiLsgLWeoDeGltk0x+xvDwLwkEEsTjO0kk9hCLbSMQiM+5XtCr2fSdIq+3mVr55jkrS8bOYwSD3By4xsjEIE2NrfQNXieXn0KhSeULaWOZbJrhsX6SyUka4s3s3/0knW09lcFqcceWbZGcmaR/6CZ5e4SJSYvkzBRNbU2loFlTCPpT6STXb14kmU0xOT1a6CGn+LmhCrVFgVgDjbkMkUiI+V6UWZbFyNgANwauYShFR0sXa7o3EA1HyVs5hkb7CQaCtLd0UcrrL24vk00xOHKb1qZ2WprayVt5hsf6GR8fJp3PEAmGaGvtpqO1m2ik/DZreKyfvJWnu2Mto+ODDI704bgOm9Ztp7mxrSLwT2WSDI32MzYxQsA0Wd+7hdamjkW9hVDLKBVDa83MzDlGR38N5InFdhOP7yaR2F38/vofcAL4W934v0/lB1iAcqqM96/3UFYI3g3WbtzFoW/8BY0tHdy+9Bmv/+xvOXfiLdZve5h4vBEvHz+TmubW5dPksmnCkRhd67fR0tbtq4AoPCBk0zMM9V0mOTVGamyQ6eRkRdmTU2MkJ0ZoaOmgoakd0zSxLYvBvisYhkH3uq3F8hYeSHO5DMO3LjM1MQxAMBRhzcadxBuaSw8ytm0xPtzHcP81HMsimmhk4/b9hCMxvDcLM9PjTIz009jaSSgSpe/yabKZFK2dvbR09BJPNJXOqf8toDdOgHeeK2ubl/b3K58f4vbtv8d1Z4jH99DQcIB4fAeBQKLiGAttIQrX92Bw/lDo895Lhsam+PnR84RM+Pd/dIg9W9cSMA1cV2MYitamBFprrvQNMzKe5KMLA4yPj3PuxijHTl0pbWfL2k6625sKwbhSZLN5Prvcx9jkDPFIiM62Rjb3dhAOlduHXB8YxXVdOlsamUymuHZ7FMfV7NjYRVdbMwHTKP3tTCZTXLwxxOjkDIlYmB0buulsbZwzZfFevB2pTJ270zMr7oYE/ktU4UJr4rgGbnrursbuhm3bXB+8zXR2hid3H2AqOc2pS5e5MdjHuo5ujOIr4Vw+z/lbV3nt03e4cO0Kriq8mm5ORPmLL32bnrYO3rt0gvc/O83QyBA3bt0mn8ty6up5cF2aW7p46ZnnObhzPwAnr57j18ffJpXO4+ZnePLg43S3dpDwlS2Xz3Oh7xqvffoOF2/1Y1k2pmHQ0hDnW898gb2bdhANR7g1MsA/vvULujs7SU1luDY4SD4zTbShkS8dfIbn9zxF4h6kEM2u4bBKw7wvBa6bw7KmmJp6k3T6BpFIG7HYbhKJR4jHd9LQcIBodEMxlaBci5/PZwuNe6uCfH/QWH2Rtqwca3o2kcnmuXbjAu0tXdwauEJ31wYch2IKQ56ZzAy/O/YyN2+eJ5eZoaGhlSPPfovujrUVucaWbXHh6imOHn+FkZE+XJ3Fymtu912htb27FOPNpJKcvPARp84eZ3TkJpZjk82lmZwaJptJz3o4MwyTgDl3ylomk+L4Z+9w+ty7TGfyaK0JGS77dj3JU49+EWWYfHLmfbTjcviJL9HU1FZxnvqHbvH6uz/mqf3P0ZB4mv6hG/z0N99jZmYc09A4DkRCAR458EWefuQFYtEElpXnxKn36B/p46EtD3Ps5NtMT42Qy6XZuHE3X3z2W6zvLdTsDY8O8OYH/8zQwHly+Rx5W9Pe0spTj32NnVv3lx4mvOP2anPd4hu2+VIyCsGOs4RqbV0sa5yxsVdIpc6TiHcTDG0kFttLQ8PDNDTsJxbbhGGEKYxDUfv36gUN/tGpC7XWRs1gNRJvKgW/Wmva2rpITo1hFxuGO47D4K2LHH/9xwzdulR8kxCgvbOXx37v23St30Y01oBl5bl86gPOfPAbhm5fwbbyZNJZhgZusX7LTqDwd3Hh03e5dPIoDz/zNXbsfwbTNMllZjj59k9xNbz4nb8mEonjui7jw32ceP2fuHH5NOmZsUJ5Y8088eJ32PXoYSKROJn0DGc+fJ0LJ95gemq88Pt3cux97AvseuKLtPdsAAyGbl7i4zd+TMf6bWSmxrh09kNc1yHe2MbTX/4zdj16uNR7j1fW0ltdXy9YXvDvpZ9W/Abd3BK6JrpY1jTT08eZmvqAaKSNcGQj8fhjNDTsoaHhESKRtcWHSk15UDf3cwf3c9FaMzQ+ze2xNJFggHVdrXS1NREMmLOWe+3YBV758BJX+0aZSc3wxvHLnL8+glIGrS1x/vyLe+ho3YOrHa7fHuUHr57gxMUR8paNlUuTaGjmW89u4WuH9tHalMDV8M6nV/js8gCPbe/hzZO36RueAifP3s0d/G/feYE1nS3k8hYXbwzy8ntn+OjiCChwbJf21gb++LmdPPXw1op0qPvRDkJy/B8cCfyXKC/HPxTMY8TuvtFtLZl8jtPXLhA1gxx56CA3Rwc5dfkM14f7eCS7h6ZEENd1GRgf5qfvvsqpi6d44fFD7FhXCEzGJkeJhSNEwxEeWb+H9mgrZ8au4boWB7bv5eGthXSP1kQzve1dBEwT23HY0buZgBlgdHKUH7z+C27d7ie5O0VbU3OpbAMTI/zwrV9z8fZtjjx9kA3xTrLZND/83Sv8t9/+mH/z1T/iwJbd5K08Z6/d5uTFy+zZtIUvPHKQXDbLrz96m9c/fZ/9Wx66J4F/aXAnnSOdPsXY2JuY5tw16Q+a62aZmnof2x7DtpPMzCSZmbnO6MhviCd6CYcfIh7fTWPjY1jWOLqYNhAKRWZtq/qibDs2wUCw/CrWdels6yGTneH05U/o7lrP8NgwOzftYWxsmFR6Cldr4tEEj+87xNYNO/n41LvcuH6K8cmhiv7lLdviWt9FfvXGD8ikp3nm8RdpiDdxo+8Sk9NJGsNxVLGnlEvXz/Lyaz8i0ZDg0YcP09LcwY3+qwwNDhONxWanJbk2tlN7tGutNacvfszv3v8VnZ3ref7hx3EchzPnj/PaOz+jpbmLXVv3k0yO0zd0kz27HqOhoYVMPg1ANBxjYmqE6zevsH/3YaDQD/za3q10t3UTDIZIzUzz6tFf8M6xV9jQu5VtG3fhOBajY7f59NPfcePWJbo6ennmsS9xrf8SH374OuFwnG+3rSFvZXn5nZ/wyScf8PQTz7Nj00OMjPbz6ts/YWTsBzQ1trFp3faKNgBQHFhqgWFZ0ulrjI+/RTDYPu9yD5bL9PRHWNYEjpNiavoKcIVQ8D2mJjegjDYaGvbR1HQI180CyYq1bcfCNCofdrza/8qBs4xCDXbxu+xYFjPTE5ihCAPXL5BKTdLatY5A8e9idPAG7778D4z1XWb3U1+htX0NQzcvcOzNn+NkM7zwp39NJJpg6OYljr/6jyTHrrP94L+grXMt48N9HHv1+6V9aw3ZVJLpkQFy0+PlMtgWt29eIeC66OIbianxId7++d9y4t1X2bZrL3tf/DMMwySTTtLS0VMKjM58+Dq/+9l/oaWjl0cOf5NovJErJ97gxDs/Q5kmj3/hj4klGhkZvM6nx18lfu4EHZ1r2Pf017CzaT588yd89Mr/R/f6bbR3r69Km/I/PBUeFE0ziONYvnERClKpK4yO/pZQqPtzfg/unVTqPJbVj+OkmUmlmUndYmzsHUKhVhKJvcRiO0kk9hIMtuM4E2icUmrd3eTPLzRPKcWm3g6e2d3F/3j5U7738gn+9EsH6O1opjERI+R72/D8Y9vYtKaF42dv8B+Hp3h0z0b+5Pldpc/3bS+8Jb85MMZ//uk7/O7EZb7+zG72buslncnx3VfP8t2XP6arrZHnHt2BUooLVwf45e8+4+TlYfZuaOY7L+zg9PUx3vr0NtvXn+LPv/40IxNJvv/2Od796DrfPryN7es7uDE4wXd/c5bJZIb21gb2bSu/oV/oPFW3Z6q1fK3epMSDIYH/ElXIxcyQzUXQzr2tnZuaSXKp/waNiWY6WtpoSjTS0drBhetXmDqQpCnRgGXbfHj+JB9fOMuXDh7i95/5Ml2thcZHyXSKRDSGaZrs3riV3Ru3Ev4kxNmWc+zauJkvHHiWWKQysAwGAqzvXkNvRxf9Y8O89ukHRBPRigallm1x8dZVbgz0cXjPw7y07wjdbR3MpNOgFN999Zd8euMMO9duxnIc3NwUHU1dfP2J53lsxz5yVp7B8TFOXD9LPj+7z++74b8JplKfkM8P35Pt3ku2PU46PVAxz9UuyeQtkslbpNMfMDV1FMOIEwpPFj731ZJ7vcJU8/fLn81nyeczdLetobt7E0c/+DVvf/gqzfFGNqzdypkLH+IWH5KaGlpoamjBsi1y2RQD/Zdmbdt1Xc5e+ISxkUFefP73efqRF4jHGljTvZFzl86QsXJoDXk7y8XLJ0CnOXLwD3h49xNEwjFamzt4441fgLbuKB1rYmqU85c+QSnFoce+wK6t+wsNH4Mhbty+zOXrZ9m8fgeNiSbUcOHBY2JqlLePvUxzQytPP/ZFHMchGAgSDocxTZOu9l6+/vwfFgaCovA9Hpsc4eS54wyN3mbrhvKNO5936Olayzd+7zus6VzP5v7L3Lh5nsnpcfJWlr7B65z+7Dh7dm7m+Se/SltLB9lsmuHJUT797C2u9V1i/ZrNsxpqVv/uvfYIfrncJ9y+fQvDSMyxZn24zjS23V8xL29lyFvnC9O580xPf4hptmBZhRpwb3CtoC8QdRy7ItiHyrciXoqM1pobl87wzs//DkcFGLh6mli8if1Pf5WOnvVoYLT/GjfOneDhQ9/g4Au/TygcpXfzLsaHb3PmxJvsvvEVGls66L9+jts3r/HUc1/n8S/9CYnGVsaG+xi49CmjE6PzH7fWlh1zxAAAIABJREFUhcbghkE+lyUYijLcd4Vrlz6hZ91Gnnvpf2HD9odRyiCbSREMhTEMg1w2za1zx0kmRzj8zb9k35MvEgiGiDe10HfzIhdOfcCug18glmgEwLYcGls6OfzS/8yGHQeYmRpjZOgGY/03yKSmZ5XL/xBQeKAqXKOrg/7Cts8zMPB3FW9a6s22p0inLs+an8+PMz7+FtnMp0xPv0Ug0INtDwEtFcvVGgdhrvz+ueZV62hu4Mhj2zhzfYzXPjjPiavDHNndw4tP7Wbz2g7amhIopdixsYftG3owDIP/GjvBM7t7+NLTeyuPz3G4dHOItz6+yguH9vOvv/E4azpbyGRzKMPg//7hexw9eYMn920hEgriuhrbVTy8uY2/+oND9Ha2sOHsda73DXGlb5RkKsvJS7d59c2P+YMX9vHHLz5Ka2OCiWSa28OT/PiN01zt281DW3pnjWuzmAbHc3023zkV95cE/ktUoYeK4s39Hgb+tm1zse8qg2NDHNn/FLFwlIZonDUtXZy9cZWBsSHWdfQwk0lz6dYtgqEEj2zdS1drW6lWrSnRMOf2Q4HgnD36QCF7I5fPY5iKbCpbEZxYjsP1gT4sO8fBHfvpam1HKUUsEuHw3oP86Ojr9PcPkcllsV0bMxjloR1b2LV+K6FgoWY6HIlgZfPlmvrPSWuNMhUEDCKRrTQ3v7ikbnJau6RSn5LNDmBZ5drQUCiGYbQQiWwkHl9PNPoQrmuRy78JlHOeYfagV7VqaEzDwLIsopEY2zfs4tiJt7h65Qy/d+SbtLV0EgqaZHPpilFEQWO7LrrG+cpkU5y/dpqmRJQdm/YQjcQLwYYyMAxF0Cw0PMvmsgyODNLY1MW6NVtKywXMQmM9pe1SoFu6kcyTgzyTnubW0E3ymTRXrp9hYnoMy8ozOTmMY+XpH71NNp+lqbGTXL7Q/mBw+BbvHX+NjrY1bNm4m5mZKcLhKLFIHEMZ5OwsAyO3GJscJZWexnUchkb7SyOyehxX097RzRMPH2ZdzyaUUnR3rOWFQy8RDkcJBkL0Dd1kanqMdG4jn53/ELPYADM9M4Vj20xNjxS68gxUpmf4UzH8A4/5hULbaWp6mkCgdc7z8+C5pNPnyOXHsazB0lzTDBIItBMKdRKNbqGp6VFc12J0dBzw8tG9TgMKDVm9wH6ubgW1dktnJZfLMDM9zvDgEOnUCAcPfZWNux4jFIrgODbD/deYSY4zMXST0++9jFIGtp0nOTXG2P/P3pvGSJJk+X1/8zvuvO+j7ruru7p7qu+eo2d6zuVyh0txZ0WsFhQkQVoKECXogyBAWEEgJUACwQVEHZS+cMlZasHZneZydnZmeqZ7uqfvu7qquu6qrDOz8j7i8tP0wcMjzD08IiOzMjMys94PKFSEh7mbuYenx7Nn//fe7CxWFmdRLhUwc/sacrkc9p56oWZoN3E6yIoCJhhPiqYDju0HIjsOZu/dgF0q4smv/B0Mjh+uTmQSyXT1XP0x3AV3OebuXsfZt3/qn1O5ALNcQqlURmllsdqHJEs4+NgL2HPkVLWuwBNf+T7m791AIpWtGm/x6TxrtQmC4F4RRd2Ljo6vQlW3zz1VKk2Ae2XkCzeq2xiToGl90LQBpJJjSCSPQFG6sbDwKhjKUNX6FLC1fddumEb3URQZz548gM5MEp9evod3z1zH++cm8P4Xt/H0iTH8h99+CnuG/N87jkqyCseFVUn7KR7PtBxcvrOAvOni5UfH0NuZgSxJSCcTeP7UIfz47UtYyhdCtR2GerP4rRdP4uD4ADjnePTgCH7wzSfRmUlAU2Xcnl7B/bkVTM4X8dan/qTJcT1ML5owTRvzywU4jgtZCwf6Nro268nzzyQW+tsgNg8y/LcpvkdLhqZZYNrGfU2Fcgnnb17G/MIKTNfC5zcuAmCwXReL+SIu3J7AE4dOwnFtOK6Djk4DKSPRcio3y7FhO05D41+qZC+xLBce92A5NUmG67oomxY8LqEzna2lM5RlpBNJqDJQLpdg2hYMRYOkGKFA5M1IN8cYQ9k0AU9FOv0kBgd/AFVtkv5hi3GcAubm+rGy8hFsewWa1gHDOIBc7lGkUieRTj+GVGofJCmJxcW3MTv3DoCw4R9dlo3LG2/ZNmzbN1D6e4dx6viTmLh7DYf3nUA23QFVy6Bc8ot1VY8LVvl+6o1Q13VQKKxA4RLSqdp3HXgZgzSqhVIeZceEqmhQVbVq4HoVbS6XElBkJVTkyC+YVO8R55zDsi045XnMzs3ik/PvI53OwTTL0FQVqpHGQPcgVEVFLtcF17GwnF/ArcmbsC0LM7OTuHH7EgrFZSSNJDKpLEqlAi5c+ww/f/3fAsxGItUNJqmYnbmKcskOxQYwxpBIpNDV2Ve95gkjhWce/6qfOcjzgzpty8a9e9extLIEVdXgug5s20Zf/xgyma6QUR8q6MQ9SIivVQAAyeRRDA7+AXR9YF3GzGbAuYfZ2Z+hkP8MljUDXUtB1caRSh5HOnMK6fRxpNMnoKo5LC5+iPn5n1f3C1KANjqXaLVpxvz0qowx7Dl4HM9/5+/j/r0bePOv/gXuT91CqbCMdLYTnuciv7yAYnEZ17/4CCuz9xBk3SmXy9h74Ah6hvbAsUzkVxYhyzJSmc5KHwxSkwBsz/Nq2ao4Byrfn2Nb0PQEioVlmKaN7v4xKBVnRrQom+tYKBWWMT9fxuUzb+PmxY+hKApKpSKMRBI9Q/uRSNeeUZLEkOvug15Jg6ppBvYeeQJ7jzwOubqqFwwpnEK0dm1Z9VqLyoxE4iCGh/8Qui6mLG0vy8ufIp8/A+AGNDUBVduDdPoRpNPHkck8hlTqCFS1E6XSBFZWPgYwBdflqxqr68lPL7bXVAWPHBjFwdF+fOP0IXz0xU38+auf4S9eP4vR/k4M93VAVWoVlG3bRcqoz+rHOcfschmOx9HbmalKhTjnUGUJWVVCsWhVM+QwCUgbCjozfj0Axhiy6QS++cxxMMnP9FMomXBcBx9fvo87s/lqX/mygxOP7MNwby7k7V+L1Cc69ujn1Tz+vFZJmdhcyPDfpvhl1U1YlgovvzGyFQC4PTOJi/euY3L6Pv76zdfw2vtvQtZzyC9NY2ZhBRcnrsDzPCiKCsYAu1RcUyBgEGTYjMCoU2QFKaNWnESWZTBJguVyLBfzcFwXiizD9TwUy2WULI6OXBdSRhLzK0sAA/Rk7cHo/0AyyBtY8IwxBl1RAQ4wpkGWU1CU7IYd/0GRJAOynIFhHEI6/SRSqePI5Z5BOn0EqtpVye8tg3MXYuXeOI0/4J9v1OiPkkyk8cJT38LxxRmMD+2HZZtgXhEuwitBvveZgTW5HxTVT4/pcQ8Sk7C0PI9CMY+eXA/AAE3V4ToeJCZKk2zk80sh72NYl+xGVh5q4wEAScviwP4ePP/Ud9DT1Q/P8/wMQZ6Hzlw3ujv6MLc4A849XLtzFXPzU9h/8BHkVxZw5uLHyGS7kEp3QdMMzC5O48c//zMszM3it779AxzeexyqouLDM2/gvU/eCBnpUiWlXjTvfkL3Y1Es24SuJcAkCY8+9hU8eugUdC34++CQZRXZVA66kGs+VJF2lRSejMmQZQOKkkFcHYd2wLkHXR+CkTgK3TiMTOZRpNMnkcs9AUXJQZZ1BJ59Pzg9IeyLSkBv+FxqaTPl0Psg9z4AJDM59I0dRN/oASzcvIyLF97DzM1L6O4fAwCkM13IZAfwpa9+H3uOPl6zjCsMjB2GVfLTdRaLBRTzi+juHwYAmOUiisV6CQ2ASspPfwyOY6FULCIlFE5UVT/NZmF5AeVSsZJ1p4YfrOyf78hoD06//Pcqgbw1dCOFXHe95t62zWrefk03qtemcuTK8Vk1o48YJ1Hzhkuh3wM/ZWZ2Wz0TFSUHwxhDT08W6fQjyGa/hFzuCWhaLyRJr6zYcphmTV4WJxeMGu7rnSyLx5EkhmRCR8LQ8PLTaaiqhv/+//oZPr5wG999/hF0d2T8Z+Yq0pn+rApFYphdzMP1OILHgO04WFgporcjjWbZlyRJQjLhP0dMy4GhqdDUBH7/pSP40vE9obayLGO0rzP6J7Cu8w/GHz0fvyFCKZyJzYMM/22Kb6jpkCQOKb0xufw5By7MLuH27Tt46fRTeOzwiarhUDLLeO+LM7i7MI3pxVl0pnPYNzSKTy5/jgu3rmG4dwC66v9olC0TuVQ6pAtXFQWMS7g7M42lwopg3MvVvO6mbcFxXdxfmIXreTAtCwv5ZWSSKb8okSRjz9AQtPMSPrp6DkPdvchlciiWi/ib91+H5JWxd3wYqqJgpeR7JTxBBuXneedw7Y0uKb89vKNxMCYjm30cqtoJwxiGrg9AkhLVHN2NqGazECraBsZ3rU3tIVwsrcA2l8HAoCgKBnpH0N87DHDfEAeT4XkOOPeNaMex4Tg2CqUSXK7AcRyYVtkPWFc0JIwkxkcO4NLFj3Hj1mUYegIrK4v4/It3MDV5HV2dveAcSBpJ9GS7cePuVUzP3kM6lcP92Xv46NzbKJslgDvVwDzHsWG7NspmCY7rwna5n2WlXIQsyVBVDblMJ/p7R3Hr1lUwSUZf9zB0XYfn+pMPXTOgKKpvgEPDxYufoX9gGMcOnsLi0ize++BVKFoCRw8+hlQijbJZwtzsfYwMDuPEocfRke3CvambmJm9j3K5CFOQfTiOB9f1Yo0MwF8hGegeQHdnDnNzkzD05zDQO1zJR+/vkzCSsdWMW2d7/bAyxpBMHsLo6D+EqnZC1wcraRcbTWJK0PUEgmw9Yh58MWOUeO/WqtVKVQPesS24loXe4b049sL3cOvWFXzx2TsY2Hccnb3D6OobBGMc5XIJqVw3cl191QBXcA49kQbjHJ29g7h19bwv+ekagFUu4osPfokb1y6jf6SSm527kBUFK8szmJu9h1JhBZZZxqVP3sDc1HXow/vAJBmyoqB3cC9UTcUX7/wM/aP7gYExyLIKz3XAJAl6IgUjlcHA6CF89sEb4BzoGRiHnkhBllU4dhmyosVO7P3c/VJ1tc+XRwX1LBy/SrTnhWRTYuVeID7n/3bDMMYwOvpfQFGySCTGmzwP5erExtDrVwgfdFVM3D+o2KupStVzXiybWMqXAAD9XRkoslw1kmVZQm9fB67cnsHU7GK1eq+mKpAYw1BvBxQm4dcfX8XeoR70dGZQtmx8cP4mppcdvPzMOAy9teeEJAH7BrPo60xgdqmMvs4sOjK1xBiMMSQMNTaVcCurII2M/mhwryRTAa+tggz/bUqQnk7XNiaVJ+ccpmXh7tRZOC7wt1/4Fp48fBKG7k8qCqUi0kYar7zzOj65fB4vnjyNxw8ewyfXruCVt3+B61N3MNLbB8d1UTCL+O6XvoZ9Q7Uo/7HeQYz3DeGTS+cAAIM9PVBkBcfHDuLQyF7YroO3zn6Me4tzmJ6bwv2ZRbi2i9fPvIuhrj4cGNqDw6N7cWhsPw6MjeOdcx9gfmkR+0ZHMDkzh88un8We4X14fPwEErqObCINzzFDRv5mmOfbPY8/YzKSyXEkk+OrNxYIPOKil5hzXncROXhVM6/IEjRdrxacCnLbJ/QUIKdh5mdh2RbuT9/B+WufwbJMXLn6Kebm5nDp6ufgYOjq7MWRfY+gM9eDRw6dwqUrn+DX7/wVpmZu4f70XdydugbDSCObSINVPP779h7F5Ynz+PmvX8GRQ9dx7/5tTE7f9Yu6ccsvIue5uHHrEq7evojl5QXcvjOBqfsL+Pjz3+D+/CQGeodxbP+j6Mr14uj+k7h24zJ+9eaPcevuNfT1DKJULsJxbJw69hRGh/YhaSSRy6TwxfkPMDg4imP7TuLu/Vv4Vf4VlMszeOLkc5BlBYqsoL9/ADMzU3jrg58jk+nEjYnzmLh9GZ4HGHrNQ80k3zh1YlYjAEBRVIwM7sXJ40/i0/Mf4GdMwdjwHiSMFBzHgqbqePz4M+jq6A1/ZxA12fEF2bYvDIYxAMNoNSuMAtMs1d4ptXzl4fMOpBtSNa2nOOmRJBmS4t/HY4cexfDe47h85j3sOfwYTr3Qj6G9x7Dn4CmcffdVLM3ewei+40hlOmGWi1CMJA6fegGZXDfGDp/Ch2++ivd+8UPMTE7ANku4eeljpNOpqhEjSwr6hvdC1ZI4++Fr8DwHtmnh1qVPUCquQJbkSvpMFUP7jmP/iWdw7sNf4pc/+ucYHj8C3UiikF/GvuOncfDkM0hnunDgsRdw9fyHeO8Xf465yRvo6RsFkySYpTyG95/A6MFHK/n8hSsthQt7BUXCJCmcurN+0lS7hkFhr+2MpnVB055toaVbnQSVzfgsYGulUZ76q7fv4/979Qw0VUG6sko9t5jH2St3MNqXw8lDI8imE9V9h/s68aWjo3j785tg7DcYHOyBJEk4fbAfjx4ew4n9Q/jG04fxV785D9tj2DOYw/35Aj48dx17hjvw9IkxaKrSUkEsiUk4ONaHrz65H6+8eRHLRQcHRruQ1CSUuIQOXcLzjx3ESH8tjmM1jX8rRGMqPNcLOfKIzYMM/23LxhZKYYyhaJZgMB1ff+IpDPUMhHT4hqbj0OheHNhzGUv5RSiyjP1D4/jB176Ltz97G1cWb+Pe4j0/pWOuB44TNl4Guvvw4iNPYqmwhIt3r+DazA30dXVjqKPXL75UKuH6/Zu4On8HnmujpysFTZNwZe4G5vMLGO3xMxns7R3Gf/DCt/DGJ+/i+vIkpi7cB2cMjx06hq89+iz29PuFw1JGEkfHxjHWNVg9D03V0NvZiT2jw9BiMlCs67ptyFG2H3EZOqJSkapxD0DXEujsGUMm3VG3n6Kq6OsfgdXRDVXRkC8s4uLVz1EyCzCtEgb6u1E0V3D+yqcYHzmAfaOHIEkSDu9/FE8/+XVcvPoZvrj2OSRJxjOnv427kxPoyHb5qwuqgmOHHsfU3D1cm7iET869h4G+ETx96kV0dfZgoGcISuX7n52/j8sTXyCfXwKTJQwMDmNq7h6WSitwXAcH9xyHridw/NDjsEwTZy9/hKs3L+DqzQtQFAWpVA7HDz0OwPesjwwfxP5DMziy9wR6ugfAuYcjR09hfmEGIwN7IMsKctkufO3538Yb7/4UF6+fg6bpSKeyePzkc1gu5JGrXC9ZVtDTPQiPc2Qr8g2PewAXPdIMXR29+Nrz30ci2YHLE5cwOz+JVCoDcI7B/jHYTthACaRETJBq7Nab1pf61K9IBQYIY6ziuQ5X/eUclWqmEnQjiYHBcfSMHYSe8DXvupHEoceexfLMbZTySyiXC+joHsRz3/19fPr6K5i6fRHFxVkoigpZVjB06BRsy4QsKxjeewxPfe27uPrZG7h96ROkO3px9Etfh1nMo7gyD0XVwBgwtPcoTj3/XVz8+HVMnP8Q2Ww39hx/Cr3D+2EkUpBk38Oe6ezFU1//XRiJBG5f+hgTX3zoP+9SOSiPPY8gjevBR56G9Tv/Ca58/i4mr57F/RtfAGBI57rQ2T9Wndhncz3Yt/8RJJONEzKIyJXVWbFSL8CrKyxyJZ5mdyBVV5aCgldA61r+aFA9EM4EJL63LAdLK0VMzeexVPavX19GxqGxXrz4+AE8e3JfqM/R/i783tcfwV++fgZfTEzj04kFHB/vxIH+NMCBscFu/MG3H4fCPFy+NYPzEzPIGBIOjPTit776GA6PD0CRZdieg5G+DjiOi2wqXt4pyxJGB7rxB997GqmEhi9uzuPy3XloCkNnVsehwU6Uj4WfO60a/GuJi2AyBfduFezll3fA2t1DiOuWcP/+j3Hz5h/jj/7we/idx76KdPLB8sdzzlEyy7BsC9lUpi4Y1vU8lCvShKRugDEG23FgOzYsx8ZyPg9NVZFKJGMDfoP9y2YZhVIJmVQKKSMJTVXhcY5SuQQ38Lp5HB7ncD0HqqwglUhWDU+Pc5RNEwWziFKpDE1TkUmmkNRrHhHP81A0y2Dw005qqv/gtmwbpmMhqRurap5bweMcn14+jz/50Z9jvvASxsf/K2ja9slg0Sqcu5ib+xVmZv8pXnjqEP7Wy78fa8Rzzqv5+0Vc10HJLEHX9FAKxYCyVYLrukjoSXjcQ9ks1QJPg0bM97QaeqL63Vi2iUJxBbZtIZFIQ9d0OK4LibGqt5xzDsuxsLy8AIAjlcxCVVVYtgVFVqAqWuVetWBaZp0cgTEGVdWgq1rFa+nLkWzHQqGwgrJZRDqVhaYZSOiJqnFTtspwXQeapkNXdXieh5LpFwwzdAOqovkyCc9FobgC0yxB0xLQdb1qNGmKBqVSC6FslX2ZiKbXpZ20HRuyLPsZeTiHZZsolYswzVLVqE0mszDWeF+7novL18/iX//oTzA3/yT27PlvYBhj20bj3yqce1hYeAvXrv1PePYre/GNH/wj9AyMNTS0GhkcruvCLOUhyQo0vfYMsy0TtlWCrOhQKpJGz3Nhm2W4ro1CfhmubSKV7YRupP0YqEowuWNbMMsFlMtFaJoBI5EG4MtndCNZ+a45LNNEqbiM/NI8OnsGoKiG70EHIClKtZq257pwXBtWuYj88gIYY0hnO6FqBjRhBcmxLVhmCcXiSlUbrSgqjFQGmmZAkuTqeSmaUZX/+LEOtbiY4NrF5emPEvxNXz3/Pv7i//nHWJjehwMH/vG2Cu5tDY6VlXOYmPgneOHkFP7n//K7IY92w73Wka0G8H8b88UyLNvFUr4Ex3Ex0JOFIstI6BrkiMTFl195KJRNmJaDsmUjm/Iz8CR0/3nneh5s28FKoYylfAkd2SR0VUHS0EPHK5kWXNdD0tArE+B4PM9DsWzBtBws5UuwbAephIaOTBLJhF6XynOjCCoW/4//4m/w/oWDGBn575BKHdiUvggf8vhvU4JgzISxcYG9jDEkjQSSQkCtiCxJoWBbwNfuq4qCJBLoSDcP4Ar2TxkJdOfCuZElxpBqsaCWxPwUnknDgJfl1W2hNpIUW6BLU2uTgA1hV82La9dQ12vXTsx+whirM/oB3xOYbuI1NLTafSNBatpWRFN1aDk9si0yasagqzp6uwdCP7zRCYim6tDU1eNhJEmCJmnQVA2pRHxOe0mSkIxIJSRJqmvPmJ+lKpfphJvy/z7iDHM/iDf+784/FzXUVtcMaKoOL51raOiLMRli9pdqZqYNmPhuF2rpO+O9zeJ9EWSmEQNTa9ppGcnKiovo2VY1HaoWvndkWYGcTMPzPCTTHXXe3cAIVjUdsqIilelsYhQyaLoBTdeR6+yrG7OIJMvQZBmaZiCdbWyMKqoGRdWQSGXhuk5sbYe485Ii8r7gWgVGv+jtD54LtSJ+zqrxQzsSXp/Vp5lHf63IkoRc2n+e9HZmYo8twhiDosjIphJAKrxdPKasa9A1FT2dmYbjS+itrX5LkoR00kA6CXTlUmta9Yj/rC4mPnZfCu7denaW2+chxHFk8A0PVt05SIzVGf1bye5Z1kYoYFLMerNaCrtmiKk1G+F5Xmxe+fXgepv3t7DaeayGLMkbamxHMwCJcF6LvRDbB/9vdx32+qlJDnyjtVagKzCkxGBUb5X7pVnaQTG/vXhtg+xAvlEczoFfM5Dd0PiC10EguthGrIy92t9b0CYw2IMxNSroVu3fE8dSOwbnvBoc3eja+O29Sj8bW0W+nTAmgzFFeN/47ykK5+En2lqDnludSIgytkZtV/t8PbT6m9A8+1BrfeyEgPHdBhn+2xy2sVJ/Yo3spkcS5/FGUPTh3cqD2HGdqqEcGKDifqEgQVZrExTbCo4R15eYEjaQ0gTEGcIc4YBEsb04jrg80aKxH1f4K3pOzT5vxGr5qUPn6rp1k6RQ3YKIrr069sh7aYdJeVqn5r0Wz9k3outTU4pef9HQDoJU/WvuTybE7yk4dmBci4Z2aw/kesOOVaRuwbao3KtRn/4/L9RG7KMm1XEq1yImcxRrbqT5fYbvdbEfMSB4tzwV/QmNf621NdbK8eOfwu/rj7+602QtbISBHJ2wrIe1OopWe4ZWj0sa/y2DrvI2R5ZdMGX3LNnvNDZL19geag/daErIIJd+1IMvPuSDNoBvgAdpQKvGFw8b7MFr0QgN9gmOIe4reliDfaJe77j23Asb1tHJQTAR4KhfnXCd+EJmzc4noJlBL/YljlV8HRwjqDLNGIMkS00nIFGv8GqTit1M2CsvVwNQfX2+6BkPrwoEbYBgclArVhXcA04liDrcTg4dJ8gaBIQLqYltgs/8Y0uhCYroqXUcK7RvrU+p+k88Z/EcaisQtfGJBfECo77mZa6/Dv7/YZlLMHavwUR6p+NfB/+a2XatxkPcOa7nnFebDDzISmurbePineJ6XeskZS3XJ+qgaPR59DlObB67yarZlXic3P3txHFd4fdw9zyUTLMEr5Jzn4P7BnmlMmcjeQlDLctP3AM8mAwAviGxekGptd3bcT9iQV+NqjYHGnzAn3REx6RG4kHEPsT24nUJJkCi4RRsj5MiyZV86Y3GF9L3IzzRqmrTK33LsrzqdWuULnR30EiOtbpXUdzsT7j86+Qb8WEDN75WQs0wRORYURynPg1zMFFgQlyG5wY59cU8+SFfcvy5eLzaRyOpjm1blfOrGfXBhMZ1a/UvXNeuXpvgmOKEICjoFcibdlpg+Fp5UMlMq0Zws31EGUx14TQSfyCuTkW3rZXosePG1Mr+ccdZDTL2t57d/Re8g/ErJDpwHAXceXg1/u1GliQwmQGKn9Zut6DrCUhMgiIrVYO/oZY1Ruu8Jo9U5bqJnvco4kpAtP8AUQIUJ2UJecJX+a7iPO9RWVEjJCbF9i9q/BlYbJvgPDl4nRwjOmZxRSSKK+i7o22UByrwtd2pafzDUh+vql33g1Vr3v+at7y2CsCYBEmSqxOAwCD3hMlWcFx/39r35Xm+HEuUGQX9Bca0LKvVMQYB14FOPjgWY760ITCogzZBf2Gve2SVQGKQZTW0jygRAlDNJiVep2A/ZL7IAAAgAElEQVRCExTvElc8/M/V8CpfZXIUlvrsDkSpj6rWy678NmHjuhVaadvI0I87VtxHcX/3jbatlTgjfj3XY61xAkGdE2LzIcN/m+L/SCjQVHs32Zs7Dg6AOxxw/EI2u4XAG9iI1bzGzSQrAKqvPe6Be+Fc81G5ivg+MIjjpDFBuss46nTwgQdTOA/RqBc966IsRzSaxWOK44j7cVptwiAajtH+4z5fjbgF++h3sttpJPURA3trxrNb1deLnv7o/1GPpRgjIFVXXSoedo6KkS8GiAb/WGh84v5in0E/0TbBWHhkZSnO0xt488Uc/IHBL7aP8+SKk4tADuSvfoSlS9Fj7QZEqY9lxT/vWtHut3JdWjX049quh8arXq3LguJYz6Qm7rix19Xl4LsomcZ2ZvdYMrsM3+Nvo2xqYCpp/NvFbsrqI9IoC0gU0RiyHbtmhEe80YyxqiqBc159LTEpoiMOrxz4O4svWcjzE+f1DvLwA77R7kSqEItjbu5JY9U+68YkjKf6f+RjVzAso9tjJ06R/UX5D2O1FQLHcUJGWrRYXnTf6Fh3N+FsVIGnPDDmHUdcEZDqjGMAdRl/As9/UJ1W9G56nleVv0SDZsWg8mCyKspqgnusFjzsVVYXwvdnEJMQtPPPJbivWPV4jmNX79PgPIPjiO/Fezm6Shf13IqrebVxi3+zcvXcmknqdiKcu+Dcv28MIeVlI0M+buLPefhZ0sh4bkXis1q/q+3bSn/NDPdWZUgbTfUelKVqtWtic6GrvE3xPT0qGmk8ia1BkXfnpCvuIS8amHFyEVVR6/YTjZ84PXxs35F7OirzaWTAikZKMD4GX8Pf6EdLHEd0TCHvaSSwMSqRYKwW3xA3+Yn2E71+omEfXR2IGhSKooT6DSoTe9yr29f13FBw8G70zIapL2IoevmDCW0gpQmQJKmia3cFo1gOXefAyBX3kSSpmsJSNHyDYNxGk1nHsYSVqkD2I4VWB4LJRrB/0E6sPCzeg+JkPXqe4nu//9oEKAgojgYNi+P2JxNWdf/gWoltdpsTREznWTat8N96nBMgdtvqbaLEr9oIMq4W5TpxUpxG/bUylkaIk5r1rAqsNqEIPvdcD567u+6x7QoZ/tsUX29qQlVscIf+GNqFu4t+7MSc1QEer+XYDwzMgIYeKDF9Jl9dTy+2j0oPosevevIbeNIf1KANaacb5O1vJttpFgcQdz5x7aNtWq1NIAYbB0aYLMnVCqyhPh4SfWA0N74PBxczKQXXSlaqUppwPv2aJz+qrRclWOJnYj770CpA5PNaXIAXah8Y7LXVhnqZVlxmovr7q/7c/f7V6r6BDEocY5zUTlG06gpKcK3C5+aFu2mQHninEL0Ojf5i1vPMqTu28LrRxKKVflsdS7S/RsSNpdmqxWorG6sdJ25ctedxLZCZ2FzI8N+2cEiSCsvywMv26s2JTcNydsf1D364y0LGETFTT+w+YiaT2sbqdtGTDVSM8yCYN9D8RyYHVcM/5qdWjgQRikZP1LPfcAkcPDRJCBlOYkrTSDpRLzDamqwgMMbqvPni+UTPKXp9guM3ex/QrKBTsx/eaJ+ObcO0draRJmKaZTjVjDVhY8SXybCq3j3QrQd4MUHR4msxa1LtuIHByyGah0FAcStyMjHwuJlXV1wFiPPoBgZlcK5BvEE0pWeA+DfgNojbCY+HQzTwxdfBagXnHlzHBufN44R2BhwLxUrMh7i1RcO5EdHveL3HaLZtPVKfRqz1fFtZYWh11QTw06kCjSdfxMZChv+2RfI9tEzF1OI0THt3GJ87DcYYVkp55EuLaJxKcCfAIMs6PMfB4so8LKvkb408iF3XDT24q7rzSKXfRkG2QVpQIJKPnMXIDGIy+Yja5OB9ox8LMZhY1MIHGXXiDLtG2YP8NuFtnhDk6LpuQ6lDUIhMzPbT6Ie0maY3qiFnLBxX4IWMsLCBJ8Y9RCmZRZhWAYxpAHZuxh9J8ot3FVbm4QqadvFffQBtWP7EhPuwPoOPfz8Fmv7gmIHBG2T+cSqxLmK/NY2/r+mPBscGBrqYQ18MMg7/k0L71sbrRWoRyKHzCs5JPK+4OgTRew4Q4wrCqxD+BMqr3v/BSoVTyiO/tAJZTj/o19o2JEkHYxKWSzYWV4oPbOyLrCavCf5/kBXMjZD6NNu/lXNo9Vir9V20HEwum2CoydyIzYMM/22KJKnQ9REAKkzbaihLIDYbjvsLC1guejCMUchyst0DWjeq2g2OftyfmkS+mI9t0yhPvLqGYOC4181oJp+JHscWVl9EaZKvc1Zi94l7H+0zbuVDDEyW5VoufrGQGRAf+yAW/xL79LjX8H00eJKx8Jia6V/FuAcRx7GxWFjC4vwSDGMYipLBTs3Drmk9UNUOTE/dRX55vmp8iDnzo0Z4QKBzF7fFafyBsEwnMIDFCZlS+b6DiYV/LKEwnayGioiJiP0HqxLRCWV4ouihlq7TnygEOfVrE5raeflpOuVQFd9mHlhxLI0MLj82oTah8lwX87P3UC4WoeujkOVEw+NuZyRJg6LkcOveLKwGKbM5Ns5QD4hzSLTKevpf7yTmQSc/qyGey/25ZczOLoAjCVXt3NR+CTL8tzESEokxaNoAJu7cxfTy/K4LrtoJFMtlLOaX4HkpGMYIZNlo95DWBWMSNK0Puj6G+bkp3Ju5A8s2AfhGalzmmGYaTTE2QFwliCOk60f9j2d0BaHZseL07M36bUSzVQsxq04c4qpGI4JiZuK1ZSwc9NxKkTORuhiMShrSqLwomHRwzlEs5TE5eQOcG9D1EShKfXDsTkFVe2AYY5ibncb0xAVYZqmiR1dD95hosARGsu9xl2KNuMCDH0iDgs+jnviaXIbX7R8QeNt92U2tfoA4lqgBKa5IRNsEhjwAIchYru7jTxblkCTHb1urIxA9XzE1qFiFONgWZB7y9f7hiSkArCzN4e7ERbheB1KpI5DlnXhPMahqFxKJw5ify+M3n09gpViOabU+Q32zjeaNYr1xBOJ9tZbjx933xbKJizfuoVhkyGYPQVF27irSToEM/22Kb6j1IJ0+jXuzNj64fA75UrHdw3qo8DwP1+/dxkeXLkJVjyKR2NPuIT0QipJBNnsalpXGq2/8BaZn78FxHD9otIXA3pABz3lVkCmuEogTg2pefVH7zoU2QkGuOAMlQMxPHyelET3nUY96lLg+g+1BezGrTtyxREOw2fUKxhs12ONW70TZUvWcBJmRuL2axSeQNEWyDQWSI9dzcWdqAleunYeqHkMqdRBxAd47BUVJorPzRSjyHpz96NeYm7xZNVKB8HcQfD/hqrbxUo7Ag+/v728Tq/hGvfSIXG8xf74ouRHHEbSLTiRqUiG3KiuKtqn7uwvORvhM/Dy6QhGMI2rgR48RtAukPmK7YELjOCYmLn2Ky+c/RyLxJaTTRxHkwt9pSJKGbPZJZNLH8O/euYRPLtyEHeMAWY1QaHXk+4ltv8btIutdIagP/64/3morQ3HjW208q628Oq6H63em8ddvXYDt7Ucq9eSOfkbtFMjw38ZIkoLe3u+hWOrA+2c+xa3pe+t6MBHrY3phDj879wZuTy0jnX6mIr3auUiShkzmJBKJ0/jii0/x3mdvYHF5zjdAKm3cGH1wgLitUVVZ8cdD1NXHafzjPGix/cbk0A+tHDCEjN84z2azSrfNtov9RREnJOLn9irB4FEjXxxr3Hjq8v03yKUeLeBVKK7g7BcfYHJqBunM40gmDzYd13aHMRm53GmkUs/h5tVb+PSdn6GwsgDXtQUPNa8zVmuv/esXeOijGXHC+e/rg8yD/6tVdyuyItGgjvvOxLiD2qpBTboTbe8b2HalL7eh8SROEGrZisLBw3WTaC+oxBv29Efvqdr2IEWvBM9zMHnzMj55/d9jfpqjo+PLSCRGsVORJBXp9BF0dn0H169P4kevncOliSm4bnwGpUbbxG+nmcMgjqhDYaOp3ivitlXarnYsYH2Soyiu5+Hq7fv4P175ENfuFJFOv4hkct+OWS3Zycj79//xH7d7EEQjGGQ5g3J5EjfvvQnOTRwc3oOkkdhVhVS2Gx7nuD8/h3fPf4Qf/vXPwKSTGBj4AZLJPdjZgUf+/STLHZib+w3m5q8g29GN/p4haKoutKoZDq7nVoMKW+qh+kPTPFtQ0DZo4zgOOHis/Caqda9uE/sSJhlxhlLQJu5Y4rgDojpx0ZCyHbtaRbiRDCB6HrZjV2U9cfKeYF/HrV2HaN+Nxir2yRiDxz3Yjo3zlz7ET1/9IcrmXgwN/QOkUvtj99s5MChKBprWhYWF85i6+QZ0I4lc9yCS6ZzfIjJhql0rMUd6LYiWMQbbNsGElaSoxCd63OC9+DosB7Ihy0pVFsSYBNs2Q6sPorEevPclc15lOwvFfIj7iUXAapmF6vPyi/u5rl2VDXnC37Q4bqdyX0fPNejj3sRlfPCTf4kP33kTmcy3MTDw96CqHQ/6pbYRBknSoGkDmJu/jOt3zsBIaNg72IGOTKrO0F2L1Ado7mSIe70aq3nkNxLx2RdHs0lAsxWD4DPP8z39P/rlx/hXf/UBID2F0dE/gmEMY6fGIO0k2Msvb8DUjdhU8vlLuH37n6FYeB3PPXsYf+uxF3BoZC+SRqKh55VYHyvFAuZXFvHLj9/Gv3vzLeRLfRgd/Ufo7f1ONavITsfzTMzM/Bx37vxvSCaX8eKzX8YzT7yEzo4eJPRknVFShfuSnVBOcM9PgylLEhC7AuCBc9H77rX8YA8MjmrRo4rMJSpLWiu+V9g3sBzHruqhXdfxjfIN+Hvi3C8/L0ly47liZSXiQfoUq8+6rgPbsbG4PIcz59/FT37xFygUejA6+l+jt/e7O1aSEcXzLMzNvYa7d/8ZZOUennr2yzj19b+D7oFRJJLZ6jWXJbmaolWKTuwCQ65RH5xDEuQ4jT6Pvl7TeVT2cysVg+OOEQSXBgZ/w9SvMefpuDYUuXlQfvQ6BMYAg39vmeUiysU8Jm9exNs//TNcOPMpdOMFjI//t0ilDu2Ke4pzF4uLH+HGjX8Cxs7id792GN//xuM4NtaHZEKDXJmARb+dYK2PgfnPxUaFB/18xquuKIaKCFYyLFUGCDT4jrjQP4QW4gpo3AQm7hhx7R+U2viCzGMeCqUyrt+dxQ9/fgY/eeMyXH4E4+P/A3K5x0Ayn62BDP8dgOeZWF4+g6mpH6JQ+DX2jig4dfAEBvv60JPKImPsxOCq7YVpW8i7RVy9dRvX7t7FF9fvwvWOor//76Oz80WoaueumWD56fnymJn5OWZnXwFwFuPjQxgZHMNg/x6k0znkktkHXtyo+F3henb8RKJNBHKNaKDwRhr+W03ZtrCcX8D8/Axu3LqM6zeuoFweQ1/f76G397vQtO52D3ED4bDtRSwsvI2Zmb+Ex89hcKQP44eOYHD0ABLJDIx0B2RVW/1QRB2e58F1HVj5JcxN38b9W1dw/eJZzM7KSKefR3//30U2e3LXOEIAwHHyWF7+GPfv/xlc+z0Mj6p48dgQxod6MNyTQU9Hqvo4LFsOdE1Z9fFYMG2k9NrEiwMwLQeG5hu3hbKNlBGemJUsBwltexi/ZduFrsh1j0OPA5bjwlDrn+kl00FCrx//SslCoWTi7mweE3en8cXELD69WIauP4WRkf8M6fTxHZs4YydChv8OwfMslEo3MDf3OpaX/wa2dRaGIcFQFOiKBkmWoCjbx7jaKXDOYVsOHNdF2bNQKtnw+Biy2ZfQ1fVNZLOPQZZ17GyJTzyOk0exeA0LC69hbu7H8LxrMIwUNM2A1iB9pyxLFcO5tcdGkNlmu6JpCizLafh+pyDJQKFYhGmW4bo96Oj4Lrq6XkI6fQKKktuFy+ccrltGsXgVi4vvYGHhp3CcL2AYCjRNh6yREbFe/Gw/gGOaKJcLsCwZunYaPb2/jWz2S9D1AUiSit32TPQ8E6XSTSws/Abz86/Atc8haXBkkhoSggFvOx4UWVrVP2A5LpKGBqeSKpRzP5hVVfy/RdN2oUeMZ9txoW6T3/FG58m5v1KkKnJdELllu9BiJgSm5cBxPeTLDoqlMozki+jo+B5yuaeRTO4lT/8WQ4b/joLDdU2Uy3dQLF5GqXQDtr0I111u98AawrmNpaU3kUweg6YNtns4TZGkFFKpg0inT0LXB6CqHbtiKbs5HJa1ANueQal0E4XCJVjWJDjfPZVeHxZkOQfDGEMqdQiJxBh0vR+7zTirh8O2V2Cad1EqTaBYvALTvNvuQe0KJCmFZHI/DGMMhjEMXR/csTn7W4fDdUsol+/ANKewsnIGljUJx1mBH6+hAvAgSTpc18+yJ0k6PM/y44gkFZ5nVq6TBM4deJ6fNlmWk/A8C36MiQLPK1f2LVc+T8HzypXfHAmeZ1biBBR4ngVZTsJ1i5UxcHDuQJIMlErXsbT4PjS9A5nMk1CUTgAMnNvVfSRJA+cuOHchSUalb6PShwTG5Lo+JMlfMXPdQugKBelbPc8C5+FEBpKUqMjSinX7MKbBMEaRSOxDMrkPqtq9o+uK7GTI8N+R+N4u1y1iO5dN9zwbhcJF3LnzJ+jo+BZ6e78DRdnOBbAUSJIORUk9BAZ/Pa5bhOuWK/cUPRZ2HhJkOQVZTj6UP6aeZ8NxluHnnt95qzbbj4f7eeh5JhynsK2fh5x7yOfP487t/xWavgdDQ/85Eont6mCTIEkaZDldWTEi2gWtr+xIGGQ5se29L65bxNzcbZim/0+WDej6dn0oEbKc3NGViYmHG0lSd1ksA9FOJEmHpm3vOAbOPZjmFJiUgiQlYBh99BtLrMrD5xYitgzHWUI+/zlKpdvI5z+EaU4hWmGSIAiCIAiC2BrI8Cc2CY5S6RZKpfNw3RJM8w4KhYtVvSNBEARBEASxtZDhT2wKnHsolW4in5+A69rI569jcfE3sO25dg+NIAiCIAjioYQMf2JTsO1FrKx8BNedrW7L58+gXJ6ijDEEQRAEQRBtgAx/YlMwzWksLX0Ix6ml9SoWbyGfP1tJaUYQBEEQBEFsJWT4ExuOX2zsGsqls/C8mnffdZeQz39WyYlMEARBEARBbCVk+BMbjm3PYWHhTZTNlWo+ccYkeJ6NfP4iyuXb2K55kQmCIAiCIHYrlMef2HAYU6CqHejr+w5sewqF/CUkEsPQ9HEkk8ceymIwBEEQBEEQ7YYMf2LDUZQcBgd/H93d38Ly8oeY9P5v5HJfR1/f96FpXdD1fgCs3cMkCIIgCIJ4qCDDn9hwJElDIrEHuj4I07wPSUpCVXuQTh+FqubaPTyCIAiCIIiHEtL4E1sEA+dOuwdBEARBEATx0EKGP7ElSJJO2n6CIAiCIIg2QoY/sSV4XhmUyYcgCIIgCKJ9kOFPbCHk8ScIgiAIgmgXZPgTWwbndruHQBAEQRAE8dBChj+xZZDGnyAIgiAIon2Q4U9sIaTxJwiCIAiCaBdk+BObCAfg1d5xMvwJgiAIgiDaBRn+xCbCEL7FyPAnCIIgCIJoF2T4E1sGY1QomiAIgiAIol2Q4U9sCYypEGU/BEEQBEEQxNZChj+xiYgaf480/gRBEARBEG2EDH9iE2GVfwDnLkjjTxAEQRAE0T7I8Cc2Gd/wl6QEafwJgiAIgiDaCBn+xCZSk/p4XgmcO+0dDkEQBEEQxEMMGf7EJhN4/HWq3EsQBEEQBNFGyPAnNpGaxt/zLHBOWX0IgiAIgiDaBRn+xBZBgb0EQRAEQRDthAx/YhPhEA1+xuh2IwiCIAiCaBdkiRGbTM3w91N6EgRBEARBEO2ADH9iE2EQbzFK50kQBEEQBNE+yPAntghG6TwJgiAIgiDaCBn+xCbjS30onSdBEARBEER7IcOf2ERqwb2eVyaNP0EQBEEQRBshw5/YRGoaf0lKkMafIAiCIAiijZDhT2wJnlcijT9BEARBEEQbIcOf2EQ4AL9ar6/vZ20dDUEQBEEQxMMMGf7EJiKm85TAGBn+BEEQBEEQ7YIMf2JL4NwG5167h0EQBEEQBPHQQoY/sWVQcC9BEARBEET7IMOf2EQ4gFoKTwruJQiCIAiCaB9k+BObCANQK9rFGN1uBEEQBEEQ7YIsMWILocq9BEEQBEEQ7YIMf2JLkOVku4dAEARBEATxUEOGP7GJ1DT+rlsE53Z7h0MQBEEQBPEQQ4Y/sYnUNP6MqaTxJwiCIAiCaCNkiRFbBAfn7R4DQRAEQRDEwwsZ/sSmwXlN6uOn8qQCXgRBEARBEO2CDH9i02Asms6TCngRBEEQBEG0CzL8iS2DCngRBEEQBEG0DzL8iS2DMcrjTxAEQRAE0S7I8Cc2DVHj70O3G0EQBEEQRLsgS4zYNKIaf8rjTxAEQRAE0T7I8Ce2DMbUdg+BIAiCIAjioYUMf2JLkCSt3UMgCIIgCIJ4qCHDn9hEwnn8KasPQRAEQRBE+6DE6sQmUtP4c+7BnwgQBNEaHJ5nw3GW4LolcG61e0C7AlnOQlVzYEwFY+T7Igji4YIMf2JLkCSD0nkSRAtw7sFxVlAsXkU+/zkKhQsAXwGY2e6h7Xg8zwNjnUgkDiCVOoZs9lEoSo6eTQRBPDSQ4U9sIhyABwDwvDI4d5s3J4iHHM+zUC7fw/T0j5HPvwnXvYlsuoyOrhSynTlIiXaPcGezPLOCxZllLC0AiwujWMm+hM6ul5FOH4YsJ9s9PIIgiE2HDH9iE2GVf5V35FUjiIZ4nonFxQ8wPf0KzPLfoK9fx9HH9+DEU0eQyiSRzqXB6In9QBQWi1heWMHUxAzOvXMF16//KZaWP8PAwA/Q3f0VKEoG4jOLIAhit0E/I8QmU/sRJY8/QTSCo1SawOTkD7G89O/x7LOH8eXfexb7ju5BKp2EoiiVgnhBfQxivbiui+KTJex7dAy/+dG7eO3VX+L27duQJBWdnS9CUVLtHiJBEMSmQYY/sYWQwUIQcZTLk5ia+jMwvIEvv3QC3/+H30PvQDcUpfaIJoN/Y5BlGZlsGieeOIqRvUM4cOQQfvKXr+POnX8Kzh309HyT0g8TBLFroZQGxJbBSKdAEHW4bhlLS+9jZeVnOPHEKL71H72E3oGekNFPbDycc6SzaZz+7ZP45u88h1TqHqbv/1uUShPtHhpBEMSmQYY/sYnUgnsBUB5/gojBcRYwP/cLdHWaePLFRzGydwiKEh8PwzmH53nV14H8x7JsAIDrevA8f5ttO5Xju6g0g+d51WOIr/3j+W3FfT2Pw3W9UB9iv9Hjidvqx+DvF+0j2J9zxI5LPF74PL3YPlY7zwDGGBRFRjaXwamXjuPxZw/A8y5hfv51kiUSBLFrIcOf2EQYwrcY5fEnCBHOXaysXES+8D4G93Xi8BP7oOlqqI1l1fL3M8YgSVL1dSD/0TR/H1mWIEn+NlX1VwwURUagEpIkqXoM8bV/PFQnHMG+ksQgy1KoD7Hf6PHEbfVjYFVjW/ws2J8xxI5LPF74PKXYPlY7zyiMMfQOduOpbz6G7oEyZmd/CsfJN/jGCIIgdjZk+BNbAmMSGFNXb0gQDxGcOyiVrkNRihjfO4RUJlmn5dc00ptvNFHvvyTJ6BvqxfBQB8rlczDNaXgerVASBLH7IMOf2ERqUh9f3+81bU0QDxuua8J1l5DrMNDZnYUkSHxESU3wntgYopMrSWIwEjr6h/rBGINlTYNzKphGEMTugwx/YpPxf2A9zyLdLEHU4cJxliErMrJ9mTptf7NMPlGtvaj9j3sdtBP3EbdXR+SKWvmaxh8AHMeJ3UeclET7aGWM0f0DbNsW+nZDbZr1v9p1YIzV9QsAmqFVrsEKCIIgdiOUNoLYRKIFvOh2I4gonLtgEoOaCEvhokZ/s/eifl3U4Iuvo+0avZZlWdge/huWZSV2n7X2ER2jiNhOzGwUHlfYZxXXf7PrAPiTAXGbrMqQ5GBfCYyRxIogiN0HefyJLYOy+hBEc4KMPI0QM9e0g60uJSAa5hvVd3D5xKBhAGCVCU4my8G5B86tuN0JgiB2NGT4E1sI3W4E0YwgIw+AWImMmLlGbNMsHiD6upGsxnXd2O3RiUZcn41eNxtLtD9x/0YypLWeY/S1/7/XcF8AWFkOVjniU6oSBEHsZEh7QWwZjNEPKUE0I86b3ygN5XpYi1zoQfpoZVWiVenPRlUsDsYUvZ6e54VkRJpqgyAIYrdChj+xZZDUhyDi0aUSgKi0ZXWDtxVjudlxGrVrtn9cn632v9Y+NvJ1owmUaPQDgO0o8DOSUTICgiB2H6S9ILYMCu4liHhML1G3TZSpuK5bkfzwkEQGqJfrRKUxa4kJWK8UqJFMR9wnOu7VeNA+RPlQlNWuC9UdIQhit0KGP7GJcISr9VIef4JoRrSwVIAsy5UqtKzOQx3OuiM39Gy3klozSqseenH7avuslmK0ZpCvv49ou6C/RucpoipOJQ6AJD8EQew+yAVLbDJiEB0tnRNEMxhrXWfvum7F0G9NyrOe1JqtxAC0uk9cms1m4xLPa619xO0jbhM/8zwv9N6yVQCMVigJgtiVkMef2EQYxFuMfkgJojmNZDZxnmrRyBWLbAXtG3m5m0mBGvXZSrGtZpl4HmSfRvuvRdIkTjqiRCcium4B4OSoIAhiV0KGP7HJtC/nOEFsf1rLWCNKYQIde9iIDf+d+bKgB3u8NzKkAzlO9OP11BdodZ9G7ZrFDbSq8a9bTQAnjT9BELsWcsESm0hY409ZfQgijCjtAcLylrhquqtlpnFdX7bS6DjNjhHXZzQFpm8kMxTzJZRLZXR05aruo0aVdZtV5m1ln0bSoEbtg4q84n6Bod/M8x9QNnWhgBcZ/wRB7C7I8Cc2kajUh/L4E4RIVE4S56EODNm47ZyHJwuyLNW1AXxDN9CyB8dyXQ/FQhGO7SCVSUHTwkau53lYXlwB5xzpbBqqqoBzjtn7c3j/F5/AzJfx/G8/hb6h3lAV3PEjxEEAABTaSURBVKgnPTr+6OfRccW1X8v7gKCeQGDwNzL2Pc8LTSJUxQFp/AmC2K2Q1IfYQuh2I4hmxBmnoqZdlLaInn1R09/s2OLxHdvGB786g7/8P/8GkzenAIQz7uRXCnj7p+/j7b9+H4tzi9X9Fu4s4zc/+Rhv/vwjTFy+XRdfEGU1OU90XI0qBTd6Hz3vZoG7AGBZ4Ww90eO5nlTZTlnICILYfZBLg9gyKD0eQbQG5xyO40BV1VVlPs0+a5Z9R5IkLMwt4LP3L2NgXw9G9g1BlmUwxuC6LqZu3ccbr3yAvSdH8XR1lcBFdiCFr3/nedhGGeMHR6AocsN+Am98oLcPjt9ojHHnIkkSHMeFJLHY2IX69KbNP4uubETbZLJAfSpiH8+z4XkWTHMK+fwFJBLjyGSO0uoAQRA7BnpaEVsGBcsRRJSw0SvKYFQ1/u9FbBMncwk84OGsP27VwA2kLZIsYf+RcXz65nmcf+sSvvY7LyCR8NvYtoMb527Dc20cProPmVwahZUCZu8uolgooO9QJ2QmI51NC9Ihvw/P82CaFmZuz2NxfgGey5HtzqB/pBfJVAKO7WBucgEud9E/0gtFCf8MFfJFzE8tIplNoKu3A4wxKEq9AR+V6IjXIi5wNyopir4PWFkGerqlijHP4ThF2PYCTHMShcIFLC+/jXz+MhhTMDT0h0inD5LhTxDEjoGeVsSW4LorsKwZeF6h3UMhiG2DbS/DdfPg8FfDmunQwzp4gLF4fXuc9z8uEFaSJPSN9KCzrxP3J+YwP72AobEBMMZQLpUx8ekduJKCoX2DkBUZd29O4Vd/+ham7t2H7TroyGbw8j/4Co48ehCKokCSJHDOUVgp4sJHl/H+Tz4B5y5czwMU4InTJ3HkxUMAY/j1K+/DMkv43T/6LSiKEpLk3Lx8B6/9+bt44mvHcfqlU5BjjP64a9UsYDduIhBn9PvXxQPnDkxzCpY1jVLpBpaWPkA+fwbF4gRcdwqWVYCuD6JUuolyeRKybDTsmyA2C845bHsBnker6UTrkOFPbCqSpACwsLj4CzjOEkjnTxA1OLeRz38ERS9V3otZsOIDU32D1X8dGPRxXn6ROCkOYwyZjjT2HhjGrSv3cOXcdXT3d8EwdCzOLuHGzXsYGOtDz0gnZFlBrjODk187jL473bj4wRXcvDEBs2yFjmuaFi59ehW//ovfoCPTjSPP74Oqqfj8rfN47ZU3wbMMhx7Zj0KhgLlbM1icW4SR0LG8uAJJlpBKJzE/vYQ7NybxqHsEUiRY2bLsqlQnOA/bdqCq4Z8y8Xxt24aqqi1PFBzbwuLiG5if/xWKxU9RKNyAbS/B84ohA8vzilhcfB2meY88/kSb8GCa92CaV5BKHQeZdEQr0F1CbBqMKUgk9iGdfgHLyx9hZeXzdg+JILYZJhxnHkEcaSOP9GpVfEWDX5TAxGXQEdumMknsfWQUb/3qI7z7V5/g0adPQNNUXH/vLqzSEp7+xgswkgYYA7r7utD1UifyywU4RRvXr98F9zw4jluV6xTzRVw+cx2qouPrf/g89h4ZBwB0DnTgT/+Xf4MzvzyHvuEedHSkMDcxjcXZJegJA+/99EOoSRUvfO8Z2LYFwEU6m6w776g+H0DV6I+eW+3z8D6i7Cl4L/aTSEiwrGmY5k0sLX0IxynGXnPOyzDNS3DdEuinlGgnirIXqdSjUNVcu4dC7ADoaUVsGozJSCbHMTb2RyiXJ4VPOHxtc+DdbPU1EBdwF2672rEafR49zoO8Xm8fjRDPPXodGu2/njE86LmL42o0Hvp+xHF4XhGTk/8amvHxKn2gUjArrGMXc9YHNMuhH9XAS5KEgZFe9HVlcP3GHcxMzkI3NFy7cg26oWP84AgSybCMxbEdOLYDVjmemEK0lC/j2tkJeK6HiQu3MX1nFoqm4P6dadi2i9n5IhRZRkdPB0qmA9tycOvsbbz3158h0WHg6BOH4NguNEOHWjHy42Q6jYpvtfJ5NJg3+t5yDIwN/m3IchorK59gefkdlIrnUChOwvPKwrXLoLv776K7+zuQJB3x90Hc+1baRP+uHqTNg/a9Wf1s1ngfpM12vlaN4FCUFAxjDLKcaHEf4mGGDH9iU/G9/nuQSIxXtwXGSpAujzEp9BoIDJroaz/Fnr8vEDwc/d92Vvks2EcMfqz/vDI64Xg8NJagUJE/Lia0qR9X9Dwa9dF8DLVxi+dVf+7h6xAeI0Ln0biPYNzx16Z27aLfT2BgtvL9RA2vtX0/4hhW+37C16H+Hmr0/az1HgnuXfG81vP9iOOw7QUsLLwJhvOh48f1VTun2ipAM8M3Li9+3EQglU3h5HMncP78Ldw4dxOO7eDOvVkcPHQIuc5syDBmjEFWZHiOB7lyKO7VxlwumuAeMDeziM9eO4tUNgkAsE0bqXQGIwf7YCQNdPZ2wHYc3L82B9M1YXk25u/kceOzO5i9tYBkJolEyogdc6NzbSRzqj1vwvEQjYJ7NZVDkjTkck+io+M0isWXUSicx+LiG1hcfB+meQeWtQDGDCQSB9HRcRqSZMTeB9HrX9sWbVP/3j/35m2Ce6xRX/E1DjbKkG5uqNb3Hdem+XVopU342dRsn/C1io5n/dfqwScYrdamiCM4N5KbEa1Cdwqx6UQf5MHzTCzoFS3uJT7zwq/lum1xx6j1Ef95s+M1Gle0z1bOY+2fx/fRfFyN92/WpvGxVx/3Zn8/0TGs9Tq0ch5rvUeibdczrvrzio453kMfyFgaSXai2zzPqxrscUaE+D6VSWLP8VFouoZr5+9gZSGP0koJe789hmQmGdovyPOvGiok3+Uf0uGrmgJFYdh3bBTPfes0OnpyoYmDntbQ1duBwkoRiaSKe1cm4cDGoUf34MK56zj71nmYjg0toyCVC/cdnBdQL22Keu2jBr5YhXg1+ZTrOABkyLIBSdKRyZxEOn0UHR3PIZ8/j7m5V7G8/BE4t8GYDMZUSFJNTtTsb6Vxm+bvW2/T/P1W0krfG3He671W9fus2mTTeJDvjQpjEmuFDH+CIIg24XvpRCOVI7Bh11LUCggbw6IhHE3rCYTlOYqioHeoB/vHBnDz6h3cvX4PKU3BnkdGoOtaZLzMd1hyQGa+t1/U+CfSBjoGspi9OYd0Zwpjh4erGnvbdqAoMiRJgixLUFQNZz89i5GxEZz88nEYhoaP3vgEqpHCkacOIpNLxZ5jtGBXNE1plEZ1EBoZ/rajAvAQVFX2vakaEolx6PoQstnHUShcw/LyB0ilDkGSyPAiCGLnQIY/QRBEm/CNSw5NKgNAtRJvlEa69LVKBBoVu0plUjj59eP4N//7T1EqFfD9//ibSOfS1c89z8PM/Tlc/uwaivkSrl64hYUVC1ffu43iSgk9g13Yf2wPcp1ZPHL6GP7y7C/wk//3VRx//hDSuQwAIL9cwCNPHcXQWD86ezvQ1Z3Be+/ew77jB7Dv5Dh6Rrvw659/CGtpDl9KnWiYxrNZITNxvJwjNMFpRDS4t9nhJUmFrg9A1/vR0XEaQDB5IwiC2BnQE4sgCKJt+Fam5fl6dtGRH6dBF7eJwb0BcTEIQUrQKGJ2G93Q8NgzJ3D97G0sLq7g2KnDyHVma6OUJNy5fg8f/fJzLM8VISUY9uwZxbWJG7h16w6OfGkfhvcOIpvL4JFnj8E2HZz58AI+f+0CXMjQVA16TsXo/gEMjw9A1VQMHRjA6Rcfx75jo+gb7EEml8ZzL53C7NwSRvYPhyYpjQJ8GwU1NyrsFbctOhnS9CDGppknn4XkPQRBEDsFMvwJgiDahtvwk8DAdxynKqWJpvis5bL3c9WvJmcRJw5iW0VR0Dfci9/5T78Fq2yjf6S3Ljf+weP7kM1lwU2A6QC3AKYBEhiSHQmk0n76zWxHBk998wkcOX0QK9MFOI4DVdGgZRT0DHSCMYZ0NoUnv3EKh08fREdXFolUApqu4Ru//xWYZQudPbmQxz9uFSO6zXXdupoHwTkHxcWCc262KtJOrTdBEMRmQ4Y/QRDENiEcLFzvkY56/wNDNpgYBATylagh3CzVp6LIGN07jKAqcDSTUbYjg3Q2jSi1gGVW7SOVTiKZSmBgOOytD6RMsiyjb7AHvQPdVYNc0iQMjQ00HF/0vAKCol7iubquB4BDluXq9Ysez3H8iUJUXlUuBZmrGk/KCIIgdipk+BMEQWwTVstQ04hom0Za/rj+RC+4WBU4jkYxCI3GxCppUht/3jjbUIA4cYg7r2glX6A1bb/SIIZA18qr7ksQBLFTWf3pSBAEQWwSjaU50ew1QDibT5xuP9D0RwmOFf280WqA2LdooK82JrGfteJ5XnV/z+Mhgz9Oo7+ePsT9Gx3LdWWsrvEnCILYmZDhTxAEsY0RDeKGKSht5/9v70564yjCMAC/1dUztpsRzkIWUESkiE0IDhzhAAdQACHEgSv/gL/DhTM3JA7AAQkOidiEWIQsEGJRErYxiR2wE8bE093VxaG7eqqrq3rGAWns8ftIyJ5eqmuClHxV/dVX9flJkN49SPC1ZwLgaTF1nk/SYHyDB3cAMwnoJwMDdxBRpt2EN+Fy++0ORpRS9XVlVZ9wcN/1FiXNeihTffLgNUREBxVTfYiI5qYZ/Ppm9KcFw0KIQNpKe4dQX8Brp/uYajd2qkwzR788PksqzeSZ7Wo79i6qvoo9dkqRXb3It4GXud/O8RcighDtjc/8/WueW1pKAUQQglV7iGjxcMafiGifmKVGvY8vsL2dtma9x1c5x6cM2EO7187WJ3vA4Xsr4Fu829W2Usp689A+Px73UW7glc3WQSKiA4SBPxHRPmEHom6qivlpp/2Yev6GUkUjxce+105/sdNvQmsFDDutJpQ+464PMMdNSlAoH9/M5LvtK9VO1enqY+i4+2ZA67LSjzmuVDudR8oC5dsI/vNIRIuHf7MREc2Nm6LjD2ZNMO2WsgSaga6Uk/KUbl67nfLizpz/l4WyLvs5Zi+A0IDBfVNgPksZNQYDe+lfqE0ftwwqAIj6/wEL+hPR4mHgT0Q0N2VQ2o/KEpLNdJXmotlQnnrXGgBfRRxvL5zg2L6nTI1p5+HP2rbbR/s+t+++72IPdkILne23DKGB0az9zZVEOQBjHX8iWjwM/ImI5qYMStNiGYB/ttoE8PYxpfxBaSj9xlBKVZtbldeaakBufXy7H2VqTHuxrf051J/QcWOWOv62UOWf5sJes5txXqf2hPj+LFePFNXi4H5nX4iIDiIG/kREc6a1Rr7bzjd389/NLrdSyjrgniUNxgS35U62k8o6JhXH7keXomi/RXA31rIHBu03B+20G/uYHYR3peh0nTfP7vXixvPd/QbsP8v6vNa49Y+qvgPLeRLR4mHgT0Q0NxGiqAeVKdy4dhOFCqfcAO1Ft24KkB2U20H0Xiv82OU97QBb68nvbq18Xx/s55rZerfN0CZi09YgzJpmVN7f/OxLnVK5wvjWGGnaq0p5MsefiBYPA38iojmJoiX0eqdw88Yutv/6uw787Vx2w7ewN5TnXp6LvNfZ17t819nH7Jn9absMG+7sv++Ngf27bzGvvVnXtBx/XwWisqRod7pSmma4tr4BrTWWlu7mzr1EtJAY+BMRzUkU9ZAk9yFLlzEcbiDLsup4M5fdTYExKT52qo87i23n5Ru+NQC+PHe3ZKhP6Jyd82/3z36Gbx+AUPlOe1AxS46/77tOU6gC14abGK5vQcozWF6+B1HEDbyIaPEw8CcimhMhJJLkHJZXHsXvV67ih7XLSNP2xlFuOoyUss6tDwXf5r9pufJ2nnuIby8Atw27r6Y9u2Z+11sHd9Z/WmpS1/dyB0JaA3le5uubxczuoOXmjREurV3B1maBo0efgpRJ5/OJiA4qBv5ERHPU75/EsWPPYGOo8NWFb7C5fr2eKe+q0GPzpa4A7SA6tBmX245v4yvTj2n3h9jrBtw6/m4gHtqEy5xzv1fX7L4Qk3r97mJmABiPUwwvr+OzC2sY7x7HiRMvcLafiBYWA38iojmSMsGRI08gSZ7G2udXcPGtT3D96p+tQHbazL3Nl/oy68ZWvhKbXQOP0IZcXe2bZ/g20HKDeLedaek7XQMT9xl5nuO3S7/j43c+x/ovOY4dfwmDwcOd7RMRHWQM/ImI5kgIgSQ5h9OnX8HO6AzeffMjvP/GBVy/9mfjOt/Mt3kzMMvmVO79Jh3HzvF32zBrDkL9Nj/N73bKkP28rr0HDJPi5A40Zt3ka697Aox3x/j5x1/x9mvv4eIH3yG543mcOvUy4njQeR8R0UEmzp//H/dqJyKi26LULra3P8Vw+Dp08TXuf/g0HnvyITzw6DmsJAnkUpmLXxQKvf4kFSXPFOJYAgJQqqgCZwFdlHnwMvbn72tdLriNq/NZmqPXb8/AG1maNZ6bpRniOEZRaMg4qvqSI3bSaUyloki2A3bfM4tCVxtvNa/Pc1WtaajarL7nLM80beZZjvE/KbY2t/H9Fz/hy4trGP6R4c7VF3Hvva8iSc41qiERES0aBv5ERPuCRp7vYGfne2xuvoPR6EMsL23gzlWBUyfvRv+YxPLK0rw7eaCNd1NcvbSBG1sj3EoTFOoMVlefw113PYuVlbOIIu7WS0SLjYE/EdE+UhQZ8nwL29tfYDRaw2j0LWQ0hip2IGUMrRU0NISQ0FrVPyMRlxtsCVEfh9YQIkKh8+q8hoaCENUMuVYABCAi6Pqasg2Bsp3yfLNNmOdD15/LPsWALlrPBAANk07k65fVbwgAAhpFdU41v2vgmYAGhITWed0GRAQBNL5HoZYh5XEMBo9gdfVxDAYPQsoBZ/qJ6FBg4E9EtA9prVAUY4zHm0jTTQD2X9Ua5c6y7k/3vLfljnOdPZpy3+2029XvWdrzXdN9XxwP0OsdRRwfQRT1GfAT0aESTugkIqK5EUJCygRJchZJctZ7jdZFtYhV1J+B6Qt9q7ur+ydrAHQ9m2+Xymw+wyiKHFHkq8oz6YPvmvrNQWe/7D5MPtvtTW+HiIhcDPyJiA4od7Z6b7PXohU4+wL8UJu+oN+93nfN9GDdHbhMPtvtMegnIto7vuMkIiIiIjoEGPgTERERER0CDPyJiIiIiA4BBv5ERERERIcAA38iIiIiokPgXxf4goVw87IfAAAAAElFTkSuQmCC;" vertex="1" parent="1">
          <mxGeometry x="150" y="1130" width="766" height="313" as="geometry" />
        </mxCell>
        <mxCell id="sY-5WAGEeDTKXC991bIr-6" value="Redux Middleware for recording events" style="text;html=1;align=center;verticalAlign=middle;resizable=0;points=[];autosize=1;strokeColor=none;fillColor=none;fontSize=42;" vertex="1" parent="1">
          <mxGeometry x="140" y="1050" width="750" height="60" as="geometry" />
        </mxCell>
      </root>
    </mxGraphModel>
  </diagram>
</mxfile>
